<mxfile host="Electron" agent="Mozilla/5.0 (Macintosh; Intel Mac OS X 10_15_7) AppleWebKit/537.36 (KHTML, like Gecko) draw.io/24.7.17 Chrome/128.0.6613.36 Electron/32.0.1 Safari/537.36" version="24.7.17">
  <diagram name="Page-1" id="6n7F6RxqicYcHCwDq3Tq">
    <mxGraphModel dx="3758" dy="1974" grid="1" gridSize="10" guides="1" tooltips="1" connect="1" arrows="1" fold="1" page="1" pageScale="1" pageWidth="827" pageHeight="1169" math="0" shadow="0">
      <root>
        <mxCell id="0" />
        <mxCell id="1" parent="0" />
        <mxCell id="y0iYO_KBNPAnz8YPgkZ9-58" value="Q" style="text;html=1;align=center;verticalAlign=middle;whiteSpace=wrap;rounded=0;fontSize=30;" parent="1" vertex="1">
          <mxGeometry x="-433" y="23" width="50" height="30" as="geometry" />
        </mxCell>
        <mxCell id="y0iYO_KBNPAnz8YPgkZ9-115" value="K&lt;sup style=&quot;font-size: 30px;&quot;&gt;T&lt;/sup&gt;" style="text;html=1;align=center;verticalAlign=middle;whiteSpace=wrap;rounded=0;fontSize=30;" parent="1" vertex="1">
          <mxGeometry x="-174" y="54" width="50" height="30" as="geometry" />
        </mxCell>
        <mxCell id="y0iYO_KBNPAnz8YPgkZ9-359" value="" style="shape=table;startSize=0;container=1;collapsible=0;childLayout=tableLayout;fillColor=#dae8fc;strokeColor=#6c8ebf;" parent="1" vertex="1">
          <mxGeometry x="52" y="70" width="160" height="200" as="geometry" />
        </mxCell>
        <mxCell id="y0iYO_KBNPAnz8YPgkZ9-360" value="" style="shape=tableRow;horizontal=0;startSize=0;swimlaneHead=0;swimlaneBody=0;strokeColor=inherit;top=0;left=0;bottom=0;right=0;collapsible=0;dropTarget=0;fillColor=none;points=[[0,0.5],[1,0.5]];portConstraint=eastwest;" parent="y0iYO_KBNPAnz8YPgkZ9-359" vertex="1">
          <mxGeometry width="160" height="26" as="geometry" />
        </mxCell>
        <mxCell id="y0iYO_KBNPAnz8YPgkZ9-361" value="" style="shape=partialRectangle;html=1;whiteSpace=wrap;connectable=0;strokeColor=inherit;overflow=hidden;fillColor=none;top=0;left=0;bottom=0;right=0;pointerEvents=1;" parent="y0iYO_KBNPAnz8YPgkZ9-360" vertex="1">
          <mxGeometry width="27" height="26" as="geometry">
            <mxRectangle width="27" height="26" as="alternateBounds" />
          </mxGeometry>
        </mxCell>
        <mxCell id="y0iYO_KBNPAnz8YPgkZ9-362" value="" style="shape=partialRectangle;html=1;whiteSpace=wrap;connectable=0;strokeColor=inherit;overflow=hidden;fillColor=none;top=0;left=0;bottom=0;right=0;pointerEvents=1;" parent="y0iYO_KBNPAnz8YPgkZ9-360" vertex="1">
          <mxGeometry x="27" width="26" height="26" as="geometry">
            <mxRectangle width="26" height="26" as="alternateBounds" />
          </mxGeometry>
        </mxCell>
        <mxCell id="y0iYO_KBNPAnz8YPgkZ9-363" value="" style="shape=partialRectangle;html=1;whiteSpace=wrap;connectable=0;strokeColor=inherit;overflow=hidden;fillColor=none;top=0;left=0;bottom=0;right=0;pointerEvents=1;" parent="y0iYO_KBNPAnz8YPgkZ9-360" vertex="1">
          <mxGeometry x="53" width="27" height="26" as="geometry">
            <mxRectangle width="27" height="26" as="alternateBounds" />
          </mxGeometry>
        </mxCell>
        <mxCell id="y0iYO_KBNPAnz8YPgkZ9-364" value="" style="shape=partialRectangle;html=1;whiteSpace=wrap;connectable=0;strokeColor=inherit;overflow=hidden;fillColor=none;top=0;left=0;bottom=0;right=0;pointerEvents=1;" parent="y0iYO_KBNPAnz8YPgkZ9-360" vertex="1">
          <mxGeometry x="80" width="27" height="26" as="geometry">
            <mxRectangle width="27" height="26" as="alternateBounds" />
          </mxGeometry>
        </mxCell>
        <mxCell id="y0iYO_KBNPAnz8YPgkZ9-365" value="" style="shape=partialRectangle;html=1;whiteSpace=wrap;connectable=0;strokeColor=inherit;overflow=hidden;fillColor=none;top=0;left=0;bottom=0;right=0;pointerEvents=1;" parent="y0iYO_KBNPAnz8YPgkZ9-360" vertex="1">
          <mxGeometry x="107" width="26" height="26" as="geometry">
            <mxRectangle width="26" height="26" as="alternateBounds" />
          </mxGeometry>
        </mxCell>
        <mxCell id="y0iYO_KBNPAnz8YPgkZ9-366" value="" style="shape=partialRectangle;html=1;whiteSpace=wrap;connectable=0;strokeColor=inherit;overflow=hidden;fillColor=none;top=0;left=0;bottom=0;right=0;pointerEvents=1;" parent="y0iYO_KBNPAnz8YPgkZ9-360" vertex="1">
          <mxGeometry x="133" width="27" height="26" as="geometry">
            <mxRectangle width="27" height="26" as="alternateBounds" />
          </mxGeometry>
        </mxCell>
        <mxCell id="y0iYO_KBNPAnz8YPgkZ9-367" value="" style="shape=tableRow;horizontal=0;startSize=0;swimlaneHead=0;swimlaneBody=0;strokeColor=inherit;top=0;left=0;bottom=0;right=0;collapsible=0;dropTarget=0;fillColor=none;points=[[0,0.5],[1,0.5]];portConstraint=eastwest;" parent="y0iYO_KBNPAnz8YPgkZ9-359" vertex="1">
          <mxGeometry y="26" width="160" height="24" as="geometry" />
        </mxCell>
        <mxCell id="y0iYO_KBNPAnz8YPgkZ9-368" value="" style="shape=partialRectangle;html=1;whiteSpace=wrap;connectable=0;strokeColor=inherit;overflow=hidden;fillColor=none;top=0;left=0;bottom=0;right=0;pointerEvents=1;" parent="y0iYO_KBNPAnz8YPgkZ9-367" vertex="1">
          <mxGeometry width="27" height="24" as="geometry">
            <mxRectangle width="27" height="24" as="alternateBounds" />
          </mxGeometry>
        </mxCell>
        <mxCell id="y0iYO_KBNPAnz8YPgkZ9-369" value="" style="shape=partialRectangle;html=1;whiteSpace=wrap;connectable=0;strokeColor=inherit;overflow=hidden;fillColor=none;top=0;left=0;bottom=0;right=0;pointerEvents=1;" parent="y0iYO_KBNPAnz8YPgkZ9-367" vertex="1">
          <mxGeometry x="27" width="26" height="24" as="geometry">
            <mxRectangle width="26" height="24" as="alternateBounds" />
          </mxGeometry>
        </mxCell>
        <mxCell id="y0iYO_KBNPAnz8YPgkZ9-370" value="" style="shape=partialRectangle;html=1;whiteSpace=wrap;connectable=0;strokeColor=inherit;overflow=hidden;fillColor=none;top=0;left=0;bottom=0;right=0;pointerEvents=1;" parent="y0iYO_KBNPAnz8YPgkZ9-367" vertex="1">
          <mxGeometry x="53" width="27" height="24" as="geometry">
            <mxRectangle width="27" height="24" as="alternateBounds" />
          </mxGeometry>
        </mxCell>
        <mxCell id="y0iYO_KBNPAnz8YPgkZ9-371" value="" style="shape=partialRectangle;html=1;whiteSpace=wrap;connectable=0;strokeColor=inherit;overflow=hidden;fillColor=none;top=0;left=0;bottom=0;right=0;pointerEvents=1;" parent="y0iYO_KBNPAnz8YPgkZ9-367" vertex="1">
          <mxGeometry x="80" width="27" height="24" as="geometry">
            <mxRectangle width="27" height="24" as="alternateBounds" />
          </mxGeometry>
        </mxCell>
        <mxCell id="y0iYO_KBNPAnz8YPgkZ9-372" value="" style="shape=partialRectangle;html=1;whiteSpace=wrap;connectable=0;strokeColor=inherit;overflow=hidden;fillColor=none;top=0;left=0;bottom=0;right=0;pointerEvents=1;" parent="y0iYO_KBNPAnz8YPgkZ9-367" vertex="1">
          <mxGeometry x="107" width="26" height="24" as="geometry">
            <mxRectangle width="26" height="24" as="alternateBounds" />
          </mxGeometry>
        </mxCell>
        <mxCell id="y0iYO_KBNPAnz8YPgkZ9-373" value="" style="shape=partialRectangle;html=1;whiteSpace=wrap;connectable=0;strokeColor=inherit;overflow=hidden;fillColor=none;top=0;left=0;bottom=0;right=0;pointerEvents=1;" parent="y0iYO_KBNPAnz8YPgkZ9-367" vertex="1">
          <mxGeometry x="133" width="27" height="24" as="geometry">
            <mxRectangle width="27" height="24" as="alternateBounds" />
          </mxGeometry>
        </mxCell>
        <mxCell id="y0iYO_KBNPAnz8YPgkZ9-374" value="" style="shape=tableRow;horizontal=0;startSize=0;swimlaneHead=0;swimlaneBody=0;strokeColor=inherit;top=0;left=0;bottom=0;right=0;collapsible=0;dropTarget=0;fillColor=none;points=[[0,0.5],[1,0.5]];portConstraint=eastwest;" parent="y0iYO_KBNPAnz8YPgkZ9-359" vertex="1">
          <mxGeometry y="50" width="160" height="26" as="geometry" />
        </mxCell>
        <mxCell id="y0iYO_KBNPAnz8YPgkZ9-375" value="" style="shape=partialRectangle;html=1;whiteSpace=wrap;connectable=0;strokeColor=inherit;overflow=hidden;fillColor=none;top=0;left=0;bottom=0;right=0;pointerEvents=1;" parent="y0iYO_KBNPAnz8YPgkZ9-374" vertex="1">
          <mxGeometry width="27" height="26" as="geometry">
            <mxRectangle width="27" height="26" as="alternateBounds" />
          </mxGeometry>
        </mxCell>
        <mxCell id="y0iYO_KBNPAnz8YPgkZ9-376" value="" style="shape=partialRectangle;html=1;whiteSpace=wrap;connectable=0;strokeColor=inherit;overflow=hidden;fillColor=none;top=0;left=0;bottom=0;right=0;pointerEvents=1;" parent="y0iYO_KBNPAnz8YPgkZ9-374" vertex="1">
          <mxGeometry x="27" width="26" height="26" as="geometry">
            <mxRectangle width="26" height="26" as="alternateBounds" />
          </mxGeometry>
        </mxCell>
        <mxCell id="y0iYO_KBNPAnz8YPgkZ9-377" value="" style="shape=partialRectangle;html=1;whiteSpace=wrap;connectable=0;strokeColor=inherit;overflow=hidden;fillColor=none;top=0;left=0;bottom=0;right=0;pointerEvents=1;" parent="y0iYO_KBNPAnz8YPgkZ9-374" vertex="1">
          <mxGeometry x="53" width="27" height="26" as="geometry">
            <mxRectangle width="27" height="26" as="alternateBounds" />
          </mxGeometry>
        </mxCell>
        <mxCell id="y0iYO_KBNPAnz8YPgkZ9-378" value="" style="shape=partialRectangle;html=1;whiteSpace=wrap;connectable=0;strokeColor=inherit;overflow=hidden;fillColor=none;top=0;left=0;bottom=0;right=0;pointerEvents=1;" parent="y0iYO_KBNPAnz8YPgkZ9-374" vertex="1">
          <mxGeometry x="80" width="27" height="26" as="geometry">
            <mxRectangle width="27" height="26" as="alternateBounds" />
          </mxGeometry>
        </mxCell>
        <mxCell id="y0iYO_KBNPAnz8YPgkZ9-379" value="" style="shape=partialRectangle;html=1;whiteSpace=wrap;connectable=0;strokeColor=inherit;overflow=hidden;fillColor=none;top=0;left=0;bottom=0;right=0;pointerEvents=1;" parent="y0iYO_KBNPAnz8YPgkZ9-374" vertex="1">
          <mxGeometry x="107" width="26" height="26" as="geometry">
            <mxRectangle width="26" height="26" as="alternateBounds" />
          </mxGeometry>
        </mxCell>
        <mxCell id="y0iYO_KBNPAnz8YPgkZ9-380" value="" style="shape=partialRectangle;html=1;whiteSpace=wrap;connectable=0;strokeColor=inherit;overflow=hidden;fillColor=none;top=0;left=0;bottom=0;right=0;pointerEvents=1;" parent="y0iYO_KBNPAnz8YPgkZ9-374" vertex="1">
          <mxGeometry x="133" width="27" height="26" as="geometry">
            <mxRectangle width="27" height="26" as="alternateBounds" />
          </mxGeometry>
        </mxCell>
        <mxCell id="y0iYO_KBNPAnz8YPgkZ9-381" value="" style="shape=tableRow;horizontal=0;startSize=0;swimlaneHead=0;swimlaneBody=0;strokeColor=inherit;top=0;left=0;bottom=0;right=0;collapsible=0;dropTarget=0;fillColor=none;points=[[0,0.5],[1,0.5]];portConstraint=eastwest;" parent="y0iYO_KBNPAnz8YPgkZ9-359" vertex="1">
          <mxGeometry y="76" width="160" height="24" as="geometry" />
        </mxCell>
        <mxCell id="y0iYO_KBNPAnz8YPgkZ9-382" value="" style="shape=partialRectangle;html=1;whiteSpace=wrap;connectable=0;strokeColor=inherit;overflow=hidden;fillColor=none;top=0;left=0;bottom=0;right=0;pointerEvents=1;" parent="y0iYO_KBNPAnz8YPgkZ9-381" vertex="1">
          <mxGeometry width="27" height="24" as="geometry">
            <mxRectangle width="27" height="24" as="alternateBounds" />
          </mxGeometry>
        </mxCell>
        <mxCell id="y0iYO_KBNPAnz8YPgkZ9-383" value="" style="shape=partialRectangle;html=1;whiteSpace=wrap;connectable=0;strokeColor=inherit;overflow=hidden;fillColor=none;top=0;left=0;bottom=0;right=0;pointerEvents=1;" parent="y0iYO_KBNPAnz8YPgkZ9-381" vertex="1">
          <mxGeometry x="27" width="26" height="24" as="geometry">
            <mxRectangle width="26" height="24" as="alternateBounds" />
          </mxGeometry>
        </mxCell>
        <mxCell id="y0iYO_KBNPAnz8YPgkZ9-384" value="" style="shape=partialRectangle;html=1;whiteSpace=wrap;connectable=0;strokeColor=inherit;overflow=hidden;fillColor=none;top=0;left=0;bottom=0;right=0;pointerEvents=1;" parent="y0iYO_KBNPAnz8YPgkZ9-381" vertex="1">
          <mxGeometry x="53" width="27" height="24" as="geometry">
            <mxRectangle width="27" height="24" as="alternateBounds" />
          </mxGeometry>
        </mxCell>
        <mxCell id="y0iYO_KBNPAnz8YPgkZ9-385" value="" style="shape=partialRectangle;html=1;whiteSpace=wrap;connectable=0;strokeColor=inherit;overflow=hidden;fillColor=none;top=0;left=0;bottom=0;right=0;pointerEvents=1;" parent="y0iYO_KBNPAnz8YPgkZ9-381" vertex="1">
          <mxGeometry x="80" width="27" height="24" as="geometry">
            <mxRectangle width="27" height="24" as="alternateBounds" />
          </mxGeometry>
        </mxCell>
        <mxCell id="y0iYO_KBNPAnz8YPgkZ9-386" value="" style="shape=partialRectangle;html=1;whiteSpace=wrap;connectable=0;strokeColor=inherit;overflow=hidden;fillColor=none;top=0;left=0;bottom=0;right=0;pointerEvents=1;" parent="y0iYO_KBNPAnz8YPgkZ9-381" vertex="1">
          <mxGeometry x="107" width="26" height="24" as="geometry">
            <mxRectangle width="26" height="24" as="alternateBounds" />
          </mxGeometry>
        </mxCell>
        <mxCell id="y0iYO_KBNPAnz8YPgkZ9-387" value="" style="shape=partialRectangle;html=1;whiteSpace=wrap;connectable=0;strokeColor=inherit;overflow=hidden;fillColor=none;top=0;left=0;bottom=0;right=0;pointerEvents=1;" parent="y0iYO_KBNPAnz8YPgkZ9-381" vertex="1">
          <mxGeometry x="133" width="27" height="24" as="geometry">
            <mxRectangle width="27" height="24" as="alternateBounds" />
          </mxGeometry>
        </mxCell>
        <mxCell id="y0iYO_KBNPAnz8YPgkZ9-388" value="" style="shape=tableRow;horizontal=0;startSize=0;swimlaneHead=0;swimlaneBody=0;strokeColor=inherit;top=0;left=0;bottom=0;right=0;collapsible=0;dropTarget=0;fillColor=none;points=[[0,0.5],[1,0.5]];portConstraint=eastwest;" parent="y0iYO_KBNPAnz8YPgkZ9-359" vertex="1">
          <mxGeometry y="100" width="160" height="26" as="geometry" />
        </mxCell>
        <mxCell id="y0iYO_KBNPAnz8YPgkZ9-389" value="" style="shape=partialRectangle;html=1;whiteSpace=wrap;connectable=0;strokeColor=inherit;overflow=hidden;fillColor=none;top=0;left=0;bottom=0;right=0;pointerEvents=1;" parent="y0iYO_KBNPAnz8YPgkZ9-388" vertex="1">
          <mxGeometry width="27" height="26" as="geometry">
            <mxRectangle width="27" height="26" as="alternateBounds" />
          </mxGeometry>
        </mxCell>
        <mxCell id="y0iYO_KBNPAnz8YPgkZ9-390" value="" style="shape=partialRectangle;html=1;whiteSpace=wrap;connectable=0;strokeColor=inherit;overflow=hidden;fillColor=none;top=0;left=0;bottom=0;right=0;pointerEvents=1;" parent="y0iYO_KBNPAnz8YPgkZ9-388" vertex="1">
          <mxGeometry x="27" width="26" height="26" as="geometry">
            <mxRectangle width="26" height="26" as="alternateBounds" />
          </mxGeometry>
        </mxCell>
        <mxCell id="y0iYO_KBNPAnz8YPgkZ9-391" value="" style="shape=partialRectangle;html=1;whiteSpace=wrap;connectable=0;strokeColor=inherit;overflow=hidden;fillColor=none;top=0;left=0;bottom=0;right=0;pointerEvents=1;" parent="y0iYO_KBNPAnz8YPgkZ9-388" vertex="1">
          <mxGeometry x="53" width="27" height="26" as="geometry">
            <mxRectangle width="27" height="26" as="alternateBounds" />
          </mxGeometry>
        </mxCell>
        <mxCell id="y0iYO_KBNPAnz8YPgkZ9-392" value="" style="shape=partialRectangle;html=1;whiteSpace=wrap;connectable=0;strokeColor=inherit;overflow=hidden;fillColor=none;top=0;left=0;bottom=0;right=0;pointerEvents=1;" parent="y0iYO_KBNPAnz8YPgkZ9-388" vertex="1">
          <mxGeometry x="80" width="27" height="26" as="geometry">
            <mxRectangle width="27" height="26" as="alternateBounds" />
          </mxGeometry>
        </mxCell>
        <mxCell id="y0iYO_KBNPAnz8YPgkZ9-393" value="" style="shape=partialRectangle;html=1;whiteSpace=wrap;connectable=0;strokeColor=inherit;overflow=hidden;fillColor=none;top=0;left=0;bottom=0;right=0;pointerEvents=1;" parent="y0iYO_KBNPAnz8YPgkZ9-388" vertex="1">
          <mxGeometry x="107" width="26" height="26" as="geometry">
            <mxRectangle width="26" height="26" as="alternateBounds" />
          </mxGeometry>
        </mxCell>
        <mxCell id="y0iYO_KBNPAnz8YPgkZ9-394" value="" style="shape=partialRectangle;html=1;whiteSpace=wrap;connectable=0;strokeColor=inherit;overflow=hidden;fillColor=none;top=0;left=0;bottom=0;right=0;pointerEvents=1;" parent="y0iYO_KBNPAnz8YPgkZ9-388" vertex="1">
          <mxGeometry x="133" width="27" height="26" as="geometry">
            <mxRectangle width="27" height="26" as="alternateBounds" />
          </mxGeometry>
        </mxCell>
        <mxCell id="y0iYO_KBNPAnz8YPgkZ9-395" value="" style="shape=tableRow;horizontal=0;startSize=0;swimlaneHead=0;swimlaneBody=0;strokeColor=inherit;top=0;left=0;bottom=0;right=0;collapsible=0;dropTarget=0;fillColor=none;points=[[0,0.5],[1,0.5]];portConstraint=eastwest;" parent="y0iYO_KBNPAnz8YPgkZ9-359" vertex="1">
          <mxGeometry y="126" width="160" height="24" as="geometry" />
        </mxCell>
        <mxCell id="y0iYO_KBNPAnz8YPgkZ9-396" value="" style="shape=partialRectangle;html=1;whiteSpace=wrap;connectable=0;strokeColor=inherit;overflow=hidden;fillColor=none;top=0;left=0;bottom=0;right=0;pointerEvents=1;" parent="y0iYO_KBNPAnz8YPgkZ9-395" vertex="1">
          <mxGeometry width="27" height="24" as="geometry">
            <mxRectangle width="27" height="24" as="alternateBounds" />
          </mxGeometry>
        </mxCell>
        <mxCell id="y0iYO_KBNPAnz8YPgkZ9-397" value="" style="shape=partialRectangle;html=1;whiteSpace=wrap;connectable=0;strokeColor=inherit;overflow=hidden;fillColor=none;top=0;left=0;bottom=0;right=0;pointerEvents=1;" parent="y0iYO_KBNPAnz8YPgkZ9-395" vertex="1">
          <mxGeometry x="27" width="26" height="24" as="geometry">
            <mxRectangle width="26" height="24" as="alternateBounds" />
          </mxGeometry>
        </mxCell>
        <mxCell id="y0iYO_KBNPAnz8YPgkZ9-398" value="" style="shape=partialRectangle;html=1;whiteSpace=wrap;connectable=0;strokeColor=inherit;overflow=hidden;fillColor=none;top=0;left=0;bottom=0;right=0;pointerEvents=1;" parent="y0iYO_KBNPAnz8YPgkZ9-395" vertex="1">
          <mxGeometry x="53" width="27" height="24" as="geometry">
            <mxRectangle width="27" height="24" as="alternateBounds" />
          </mxGeometry>
        </mxCell>
        <mxCell id="y0iYO_KBNPAnz8YPgkZ9-399" value="" style="shape=partialRectangle;html=1;whiteSpace=wrap;connectable=0;strokeColor=inherit;overflow=hidden;fillColor=none;top=0;left=0;bottom=0;right=0;pointerEvents=1;" parent="y0iYO_KBNPAnz8YPgkZ9-395" vertex="1">
          <mxGeometry x="80" width="27" height="24" as="geometry">
            <mxRectangle width="27" height="24" as="alternateBounds" />
          </mxGeometry>
        </mxCell>
        <mxCell id="y0iYO_KBNPAnz8YPgkZ9-400" value="" style="shape=partialRectangle;html=1;whiteSpace=wrap;connectable=0;strokeColor=inherit;overflow=hidden;fillColor=none;top=0;left=0;bottom=0;right=0;pointerEvents=1;" parent="y0iYO_KBNPAnz8YPgkZ9-395" vertex="1">
          <mxGeometry x="107" width="26" height="24" as="geometry">
            <mxRectangle width="26" height="24" as="alternateBounds" />
          </mxGeometry>
        </mxCell>
        <mxCell id="y0iYO_KBNPAnz8YPgkZ9-401" value="" style="shape=partialRectangle;html=1;whiteSpace=wrap;connectable=0;strokeColor=inherit;overflow=hidden;fillColor=none;top=0;left=0;bottom=0;right=0;pointerEvents=1;" parent="y0iYO_KBNPAnz8YPgkZ9-395" vertex="1">
          <mxGeometry x="133" width="27" height="24" as="geometry">
            <mxRectangle width="27" height="24" as="alternateBounds" />
          </mxGeometry>
        </mxCell>
        <mxCell id="y0iYO_KBNPAnz8YPgkZ9-402" value="" style="shape=tableRow;horizontal=0;startSize=0;swimlaneHead=0;swimlaneBody=0;strokeColor=inherit;top=0;left=0;bottom=0;right=0;collapsible=0;dropTarget=0;fillColor=none;points=[[0,0.5],[1,0.5]];portConstraint=eastwest;" parent="y0iYO_KBNPAnz8YPgkZ9-359" vertex="1">
          <mxGeometry y="150" width="160" height="26" as="geometry" />
        </mxCell>
        <mxCell id="y0iYO_KBNPAnz8YPgkZ9-403" value="" style="shape=partialRectangle;html=1;whiteSpace=wrap;connectable=0;strokeColor=inherit;overflow=hidden;fillColor=none;top=0;left=0;bottom=0;right=0;pointerEvents=1;" parent="y0iYO_KBNPAnz8YPgkZ9-402" vertex="1">
          <mxGeometry width="27" height="26" as="geometry">
            <mxRectangle width="27" height="26" as="alternateBounds" />
          </mxGeometry>
        </mxCell>
        <mxCell id="y0iYO_KBNPAnz8YPgkZ9-404" value="" style="shape=partialRectangle;html=1;whiteSpace=wrap;connectable=0;strokeColor=inherit;overflow=hidden;fillColor=none;top=0;left=0;bottom=0;right=0;pointerEvents=1;" parent="y0iYO_KBNPAnz8YPgkZ9-402" vertex="1">
          <mxGeometry x="27" width="26" height="26" as="geometry">
            <mxRectangle width="26" height="26" as="alternateBounds" />
          </mxGeometry>
        </mxCell>
        <mxCell id="y0iYO_KBNPAnz8YPgkZ9-405" value="" style="shape=partialRectangle;html=1;whiteSpace=wrap;connectable=0;strokeColor=inherit;overflow=hidden;fillColor=none;top=0;left=0;bottom=0;right=0;pointerEvents=1;" parent="y0iYO_KBNPAnz8YPgkZ9-402" vertex="1">
          <mxGeometry x="53" width="27" height="26" as="geometry">
            <mxRectangle width="27" height="26" as="alternateBounds" />
          </mxGeometry>
        </mxCell>
        <mxCell id="y0iYO_KBNPAnz8YPgkZ9-406" value="" style="shape=partialRectangle;html=1;whiteSpace=wrap;connectable=0;strokeColor=inherit;overflow=hidden;fillColor=none;top=0;left=0;bottom=0;right=0;pointerEvents=1;" parent="y0iYO_KBNPAnz8YPgkZ9-402" vertex="1">
          <mxGeometry x="80" width="27" height="26" as="geometry">
            <mxRectangle width="27" height="26" as="alternateBounds" />
          </mxGeometry>
        </mxCell>
        <mxCell id="y0iYO_KBNPAnz8YPgkZ9-407" value="" style="shape=partialRectangle;html=1;whiteSpace=wrap;connectable=0;strokeColor=inherit;overflow=hidden;fillColor=none;top=0;left=0;bottom=0;right=0;pointerEvents=1;" parent="y0iYO_KBNPAnz8YPgkZ9-402" vertex="1">
          <mxGeometry x="107" width="26" height="26" as="geometry">
            <mxRectangle width="26" height="26" as="alternateBounds" />
          </mxGeometry>
        </mxCell>
        <mxCell id="y0iYO_KBNPAnz8YPgkZ9-408" value="" style="shape=partialRectangle;html=1;whiteSpace=wrap;connectable=0;strokeColor=inherit;overflow=hidden;fillColor=none;top=0;left=0;bottom=0;right=0;pointerEvents=1;" parent="y0iYO_KBNPAnz8YPgkZ9-402" vertex="1">
          <mxGeometry x="133" width="27" height="26" as="geometry">
            <mxRectangle width="27" height="26" as="alternateBounds" />
          </mxGeometry>
        </mxCell>
        <mxCell id="y0iYO_KBNPAnz8YPgkZ9-409" value="" style="shape=tableRow;horizontal=0;startSize=0;swimlaneHead=0;swimlaneBody=0;strokeColor=inherit;top=0;left=0;bottom=0;right=0;collapsible=0;dropTarget=0;fillColor=none;points=[[0,0.5],[1,0.5]];portConstraint=eastwest;" parent="y0iYO_KBNPAnz8YPgkZ9-359" vertex="1">
          <mxGeometry y="176" width="160" height="24" as="geometry" />
        </mxCell>
        <mxCell id="y0iYO_KBNPAnz8YPgkZ9-410" value="" style="shape=partialRectangle;html=1;whiteSpace=wrap;connectable=0;strokeColor=inherit;overflow=hidden;fillColor=none;top=0;left=0;bottom=0;right=0;pointerEvents=1;" parent="y0iYO_KBNPAnz8YPgkZ9-409" vertex="1">
          <mxGeometry width="27" height="24" as="geometry">
            <mxRectangle width="27" height="24" as="alternateBounds" />
          </mxGeometry>
        </mxCell>
        <mxCell id="y0iYO_KBNPAnz8YPgkZ9-411" value="" style="shape=partialRectangle;html=1;whiteSpace=wrap;connectable=0;strokeColor=inherit;overflow=hidden;fillColor=none;top=0;left=0;bottom=0;right=0;pointerEvents=1;" parent="y0iYO_KBNPAnz8YPgkZ9-409" vertex="1">
          <mxGeometry x="27" width="26" height="24" as="geometry">
            <mxRectangle width="26" height="24" as="alternateBounds" />
          </mxGeometry>
        </mxCell>
        <mxCell id="y0iYO_KBNPAnz8YPgkZ9-412" value="" style="shape=partialRectangle;html=1;whiteSpace=wrap;connectable=0;strokeColor=inherit;overflow=hidden;fillColor=none;top=0;left=0;bottom=0;right=0;pointerEvents=1;" parent="y0iYO_KBNPAnz8YPgkZ9-409" vertex="1">
          <mxGeometry x="53" width="27" height="24" as="geometry">
            <mxRectangle width="27" height="24" as="alternateBounds" />
          </mxGeometry>
        </mxCell>
        <mxCell id="y0iYO_KBNPAnz8YPgkZ9-413" value="" style="shape=partialRectangle;html=1;whiteSpace=wrap;connectable=0;strokeColor=inherit;overflow=hidden;fillColor=none;top=0;left=0;bottom=0;right=0;pointerEvents=1;" parent="y0iYO_KBNPAnz8YPgkZ9-409" vertex="1">
          <mxGeometry x="80" width="27" height="24" as="geometry">
            <mxRectangle width="27" height="24" as="alternateBounds" />
          </mxGeometry>
        </mxCell>
        <mxCell id="y0iYO_KBNPAnz8YPgkZ9-414" value="" style="shape=partialRectangle;html=1;whiteSpace=wrap;connectable=0;strokeColor=inherit;overflow=hidden;fillColor=none;top=0;left=0;bottom=0;right=0;pointerEvents=1;" parent="y0iYO_KBNPAnz8YPgkZ9-409" vertex="1">
          <mxGeometry x="107" width="26" height="24" as="geometry">
            <mxRectangle width="26" height="24" as="alternateBounds" />
          </mxGeometry>
        </mxCell>
        <mxCell id="y0iYO_KBNPAnz8YPgkZ9-415" value="" style="shape=partialRectangle;html=1;whiteSpace=wrap;connectable=0;strokeColor=inherit;overflow=hidden;fillColor=none;top=0;left=0;bottom=0;right=0;pointerEvents=1;" parent="y0iYO_KBNPAnz8YPgkZ9-409" vertex="1">
          <mxGeometry x="133" width="27" height="24" as="geometry">
            <mxRectangle width="27" height="24" as="alternateBounds" />
          </mxGeometry>
        </mxCell>
        <mxCell id="y0iYO_KBNPAnz8YPgkZ9-416" value="V" style="text;html=1;align=center;verticalAlign=middle;whiteSpace=wrap;rounded=0;fontSize=30;" parent="1" vertex="1">
          <mxGeometry x="105" y="23" width="50" height="30" as="geometry" />
        </mxCell>
        <mxCell id="y0iYO_KBNPAnz8YPgkZ9-417" value="B x T/P x E" style="text;html=1;align=center;verticalAlign=middle;whiteSpace=wrap;rounded=0;fontSize=20;" parent="1" vertex="1">
          <mxGeometry x="-464" y="297" width="130" height="30" as="geometry" />
        </mxCell>
        <mxCell id="y0iYO_KBNPAnz8YPgkZ9-418" value="&lt;span style=&quot;color: rgb(0, 0, 0); font-family: Helvetica; font-size: 20px; font-style: normal; font-variant-ligatures: normal; font-variant-caps: normal; font-weight: 400; letter-spacing: normal; orphans: 2; text-align: center; text-indent: 0px; text-transform: none; widows: 2; word-spacing: 0px; -webkit-text-stroke-width: 0px; white-space: normal; background-color: rgb(251, 251, 251); text-decoration-thickness: initial; text-decoration-style: initial; text-decoration-color: initial; float: none; display: inline !important;&quot;&gt;B x E x T&lt;/span&gt;" style="text;html=1;align=center;verticalAlign=middle;whiteSpace=wrap;rounded=0;fontSize=20;" parent="1" vertex="1">
          <mxGeometry x="-215" y="267" width="120" height="30" as="geometry" />
        </mxCell>
        <mxCell id="y0iYO_KBNPAnz8YPgkZ9-419" value="B x T x E" style="text;html=1;align=center;verticalAlign=middle;whiteSpace=wrap;rounded=0;fontSize=20;" parent="1" vertex="1">
          <mxGeometry x="81" y="280" width="100" height="30" as="geometry" />
        </mxCell>
        <mxCell id="y0iYO_KBNPAnz8YPgkZ9-569" value="" style="shape=table;startSize=0;container=1;collapsible=0;childLayout=tableLayout;fillColor=#dae8fc;strokeColor=#6c8ebf;" parent="1" vertex="1">
          <mxGeometry x="-264" y="100" width="230" height="160" as="geometry" />
        </mxCell>
        <mxCell id="y0iYO_KBNPAnz8YPgkZ9-570" value="" style="shape=tableRow;horizontal=0;startSize=0;swimlaneHead=0;swimlaneBody=0;strokeColor=inherit;top=0;left=0;bottom=0;right=0;collapsible=0;dropTarget=0;fillColor=none;points=[[0,0.5],[1,0.5]];portConstraint=eastwest;" parent="y0iYO_KBNPAnz8YPgkZ9-569" vertex="1">
          <mxGeometry width="230" height="26" as="geometry" />
        </mxCell>
        <mxCell id="y0iYO_KBNPAnz8YPgkZ9-571" value="" style="shape=partialRectangle;html=1;whiteSpace=wrap;connectable=0;strokeColor=inherit;overflow=hidden;fillColor=none;top=0;left=0;bottom=0;right=0;pointerEvents=1;" parent="y0iYO_KBNPAnz8YPgkZ9-570" vertex="1">
          <mxGeometry width="29" height="26" as="geometry">
            <mxRectangle width="29" height="26" as="alternateBounds" />
          </mxGeometry>
        </mxCell>
        <mxCell id="y0iYO_KBNPAnz8YPgkZ9-572" value="" style="shape=partialRectangle;html=1;whiteSpace=wrap;connectable=0;strokeColor=inherit;overflow=hidden;fillColor=none;top=0;left=0;bottom=0;right=0;pointerEvents=1;" parent="y0iYO_KBNPAnz8YPgkZ9-570" vertex="1">
          <mxGeometry x="29" width="29" height="26" as="geometry">
            <mxRectangle width="29" height="26" as="alternateBounds" />
          </mxGeometry>
        </mxCell>
        <mxCell id="y0iYO_KBNPAnz8YPgkZ9-573" value="" style="shape=partialRectangle;html=1;whiteSpace=wrap;connectable=0;strokeColor=inherit;overflow=hidden;fillColor=none;top=0;left=0;bottom=0;right=0;pointerEvents=1;" parent="y0iYO_KBNPAnz8YPgkZ9-570" vertex="1">
          <mxGeometry x="58" width="28" height="26" as="geometry">
            <mxRectangle width="28" height="26" as="alternateBounds" />
          </mxGeometry>
        </mxCell>
        <mxCell id="y0iYO_KBNPAnz8YPgkZ9-574" value="" style="shape=partialRectangle;html=1;whiteSpace=wrap;connectable=0;strokeColor=inherit;overflow=hidden;fillColor=none;top=0;left=0;bottom=0;right=0;pointerEvents=1;" parent="y0iYO_KBNPAnz8YPgkZ9-570" vertex="1">
          <mxGeometry x="86" width="29" height="26" as="geometry">
            <mxRectangle width="29" height="26" as="alternateBounds" />
          </mxGeometry>
        </mxCell>
        <mxCell id="y0iYO_KBNPAnz8YPgkZ9-575" value="" style="shape=partialRectangle;html=1;whiteSpace=wrap;connectable=0;strokeColor=inherit;overflow=hidden;fillColor=none;top=0;left=0;bottom=0;right=0;pointerEvents=1;" parent="y0iYO_KBNPAnz8YPgkZ9-570" vertex="1">
          <mxGeometry x="115" width="29" height="26" as="geometry">
            <mxRectangle width="29" height="26" as="alternateBounds" />
          </mxGeometry>
        </mxCell>
        <mxCell id="y0iYO_KBNPAnz8YPgkZ9-576" value="" style="shape=partialRectangle;html=1;whiteSpace=wrap;connectable=0;strokeColor=inherit;overflow=hidden;fillColor=none;top=0;left=0;bottom=0;right=0;pointerEvents=1;" parent="y0iYO_KBNPAnz8YPgkZ9-570" vertex="1">
          <mxGeometry x="144" width="29" height="26" as="geometry">
            <mxRectangle width="29" height="26" as="alternateBounds" />
          </mxGeometry>
        </mxCell>
        <mxCell id="y0iYO_KBNPAnz8YPgkZ9-577" value="" style="shape=partialRectangle;html=1;whiteSpace=wrap;connectable=0;strokeColor=inherit;overflow=hidden;fillColor=none;top=0;left=0;bottom=0;right=0;pointerEvents=1;" parent="y0iYO_KBNPAnz8YPgkZ9-570" vertex="1">
          <mxGeometry x="173" width="28" height="26" as="geometry">
            <mxRectangle width="28" height="26" as="alternateBounds" />
          </mxGeometry>
        </mxCell>
        <mxCell id="y0iYO_KBNPAnz8YPgkZ9-578" value="" style="shape=partialRectangle;html=1;whiteSpace=wrap;connectable=0;strokeColor=inherit;overflow=hidden;fillColor=none;top=0;left=0;bottom=0;right=0;pointerEvents=1;" parent="y0iYO_KBNPAnz8YPgkZ9-570" vertex="1">
          <mxGeometry x="201" width="29" height="26" as="geometry">
            <mxRectangle width="29" height="26" as="alternateBounds" />
          </mxGeometry>
        </mxCell>
        <mxCell id="y0iYO_KBNPAnz8YPgkZ9-579" value="" style="shape=tableRow;horizontal=0;startSize=0;swimlaneHead=0;swimlaneBody=0;strokeColor=inherit;top=0;left=0;bottom=0;right=0;collapsible=0;dropTarget=0;fillColor=none;points=[[0,0.5],[1,0.5]];portConstraint=eastwest;" parent="y0iYO_KBNPAnz8YPgkZ9-569" vertex="1">
          <mxGeometry y="26" width="230" height="28" as="geometry" />
        </mxCell>
        <mxCell id="y0iYO_KBNPAnz8YPgkZ9-580" value="" style="shape=partialRectangle;html=1;whiteSpace=wrap;connectable=0;strokeColor=inherit;overflow=hidden;fillColor=none;top=0;left=0;bottom=0;right=0;pointerEvents=1;" parent="y0iYO_KBNPAnz8YPgkZ9-579" vertex="1">
          <mxGeometry width="29" height="28" as="geometry">
            <mxRectangle width="29" height="28" as="alternateBounds" />
          </mxGeometry>
        </mxCell>
        <mxCell id="y0iYO_KBNPAnz8YPgkZ9-581" value="" style="shape=partialRectangle;html=1;whiteSpace=wrap;connectable=0;strokeColor=inherit;overflow=hidden;fillColor=none;top=0;left=0;bottom=0;right=0;pointerEvents=1;" parent="y0iYO_KBNPAnz8YPgkZ9-579" vertex="1">
          <mxGeometry x="29" width="29" height="28" as="geometry">
            <mxRectangle width="29" height="28" as="alternateBounds" />
          </mxGeometry>
        </mxCell>
        <mxCell id="y0iYO_KBNPAnz8YPgkZ9-582" value="" style="shape=partialRectangle;html=1;whiteSpace=wrap;connectable=0;strokeColor=inherit;overflow=hidden;fillColor=none;top=0;left=0;bottom=0;right=0;pointerEvents=1;" parent="y0iYO_KBNPAnz8YPgkZ9-579" vertex="1">
          <mxGeometry x="58" width="28" height="28" as="geometry">
            <mxRectangle width="28" height="28" as="alternateBounds" />
          </mxGeometry>
        </mxCell>
        <mxCell id="y0iYO_KBNPAnz8YPgkZ9-583" value="" style="shape=partialRectangle;html=1;whiteSpace=wrap;connectable=0;strokeColor=inherit;overflow=hidden;fillColor=none;top=0;left=0;bottom=0;right=0;pointerEvents=1;" parent="y0iYO_KBNPAnz8YPgkZ9-579" vertex="1">
          <mxGeometry x="86" width="29" height="28" as="geometry">
            <mxRectangle width="29" height="28" as="alternateBounds" />
          </mxGeometry>
        </mxCell>
        <mxCell id="y0iYO_KBNPAnz8YPgkZ9-584" value="" style="shape=partialRectangle;html=1;whiteSpace=wrap;connectable=0;strokeColor=inherit;overflow=hidden;fillColor=none;top=0;left=0;bottom=0;right=0;pointerEvents=1;" parent="y0iYO_KBNPAnz8YPgkZ9-579" vertex="1">
          <mxGeometry x="115" width="29" height="28" as="geometry">
            <mxRectangle width="29" height="28" as="alternateBounds" />
          </mxGeometry>
        </mxCell>
        <mxCell id="y0iYO_KBNPAnz8YPgkZ9-585" value="" style="shape=partialRectangle;html=1;whiteSpace=wrap;connectable=0;strokeColor=inherit;overflow=hidden;fillColor=none;top=0;left=0;bottom=0;right=0;pointerEvents=1;" parent="y0iYO_KBNPAnz8YPgkZ9-579" vertex="1">
          <mxGeometry x="144" width="29" height="28" as="geometry">
            <mxRectangle width="29" height="28" as="alternateBounds" />
          </mxGeometry>
        </mxCell>
        <mxCell id="y0iYO_KBNPAnz8YPgkZ9-586" value="" style="shape=partialRectangle;html=1;whiteSpace=wrap;connectable=0;strokeColor=inherit;overflow=hidden;fillColor=none;top=0;left=0;bottom=0;right=0;pointerEvents=1;" parent="y0iYO_KBNPAnz8YPgkZ9-579" vertex="1">
          <mxGeometry x="173" width="28" height="28" as="geometry">
            <mxRectangle width="28" height="28" as="alternateBounds" />
          </mxGeometry>
        </mxCell>
        <mxCell id="y0iYO_KBNPAnz8YPgkZ9-587" value="" style="shape=partialRectangle;html=1;whiteSpace=wrap;connectable=0;strokeColor=inherit;overflow=hidden;fillColor=none;top=0;left=0;bottom=0;right=0;pointerEvents=1;" parent="y0iYO_KBNPAnz8YPgkZ9-579" vertex="1">
          <mxGeometry x="201" width="29" height="28" as="geometry">
            <mxRectangle width="29" height="28" as="alternateBounds" />
          </mxGeometry>
        </mxCell>
        <mxCell id="y0iYO_KBNPAnz8YPgkZ9-588" value="" style="shape=tableRow;horizontal=0;startSize=0;swimlaneHead=0;swimlaneBody=0;strokeColor=inherit;top=0;left=0;bottom=0;right=0;collapsible=0;dropTarget=0;fillColor=none;points=[[0,0.5],[1,0.5]];portConstraint=eastwest;" parent="y0iYO_KBNPAnz8YPgkZ9-569" vertex="1">
          <mxGeometry y="54" width="230" height="26" as="geometry" />
        </mxCell>
        <mxCell id="y0iYO_KBNPAnz8YPgkZ9-589" value="" style="shape=partialRectangle;html=1;whiteSpace=wrap;connectable=0;strokeColor=inherit;overflow=hidden;fillColor=none;top=0;left=0;bottom=0;right=0;pointerEvents=1;" parent="y0iYO_KBNPAnz8YPgkZ9-588" vertex="1">
          <mxGeometry width="29" height="26" as="geometry">
            <mxRectangle width="29" height="26" as="alternateBounds" />
          </mxGeometry>
        </mxCell>
        <mxCell id="y0iYO_KBNPAnz8YPgkZ9-590" value="" style="shape=partialRectangle;html=1;whiteSpace=wrap;connectable=0;strokeColor=inherit;overflow=hidden;fillColor=none;top=0;left=0;bottom=0;right=0;pointerEvents=1;" parent="y0iYO_KBNPAnz8YPgkZ9-588" vertex="1">
          <mxGeometry x="29" width="29" height="26" as="geometry">
            <mxRectangle width="29" height="26" as="alternateBounds" />
          </mxGeometry>
        </mxCell>
        <mxCell id="y0iYO_KBNPAnz8YPgkZ9-591" value="" style="shape=partialRectangle;html=1;whiteSpace=wrap;connectable=0;strokeColor=inherit;overflow=hidden;fillColor=none;top=0;left=0;bottom=0;right=0;pointerEvents=1;" parent="y0iYO_KBNPAnz8YPgkZ9-588" vertex="1">
          <mxGeometry x="58" width="28" height="26" as="geometry">
            <mxRectangle width="28" height="26" as="alternateBounds" />
          </mxGeometry>
        </mxCell>
        <mxCell id="y0iYO_KBNPAnz8YPgkZ9-592" value="" style="shape=partialRectangle;html=1;whiteSpace=wrap;connectable=0;strokeColor=inherit;overflow=hidden;fillColor=none;top=0;left=0;bottom=0;right=0;pointerEvents=1;" parent="y0iYO_KBNPAnz8YPgkZ9-588" vertex="1">
          <mxGeometry x="86" width="29" height="26" as="geometry">
            <mxRectangle width="29" height="26" as="alternateBounds" />
          </mxGeometry>
        </mxCell>
        <mxCell id="y0iYO_KBNPAnz8YPgkZ9-593" value="" style="shape=partialRectangle;html=1;whiteSpace=wrap;connectable=0;strokeColor=inherit;overflow=hidden;fillColor=none;top=0;left=0;bottom=0;right=0;pointerEvents=1;" parent="y0iYO_KBNPAnz8YPgkZ9-588" vertex="1">
          <mxGeometry x="115" width="29" height="26" as="geometry">
            <mxRectangle width="29" height="26" as="alternateBounds" />
          </mxGeometry>
        </mxCell>
        <mxCell id="y0iYO_KBNPAnz8YPgkZ9-594" value="" style="shape=partialRectangle;html=1;whiteSpace=wrap;connectable=0;strokeColor=inherit;overflow=hidden;fillColor=none;top=0;left=0;bottom=0;right=0;pointerEvents=1;" parent="y0iYO_KBNPAnz8YPgkZ9-588" vertex="1">
          <mxGeometry x="144" width="29" height="26" as="geometry">
            <mxRectangle width="29" height="26" as="alternateBounds" />
          </mxGeometry>
        </mxCell>
        <mxCell id="y0iYO_KBNPAnz8YPgkZ9-595" value="" style="shape=partialRectangle;html=1;whiteSpace=wrap;connectable=0;strokeColor=inherit;overflow=hidden;fillColor=none;top=0;left=0;bottom=0;right=0;pointerEvents=1;" parent="y0iYO_KBNPAnz8YPgkZ9-588" vertex="1">
          <mxGeometry x="173" width="28" height="26" as="geometry">
            <mxRectangle width="28" height="26" as="alternateBounds" />
          </mxGeometry>
        </mxCell>
        <mxCell id="y0iYO_KBNPAnz8YPgkZ9-596" value="" style="shape=partialRectangle;html=1;whiteSpace=wrap;connectable=0;strokeColor=inherit;overflow=hidden;fillColor=none;top=0;left=0;bottom=0;right=0;pointerEvents=1;" parent="y0iYO_KBNPAnz8YPgkZ9-588" vertex="1">
          <mxGeometry x="201" width="29" height="26" as="geometry">
            <mxRectangle width="29" height="26" as="alternateBounds" />
          </mxGeometry>
        </mxCell>
        <mxCell id="y0iYO_KBNPAnz8YPgkZ9-597" value="" style="shape=tableRow;horizontal=0;startSize=0;swimlaneHead=0;swimlaneBody=0;strokeColor=inherit;top=0;left=0;bottom=0;right=0;collapsible=0;dropTarget=0;fillColor=none;points=[[0,0.5],[1,0.5]];portConstraint=eastwest;" parent="y0iYO_KBNPAnz8YPgkZ9-569" vertex="1">
          <mxGeometry y="80" width="230" height="26" as="geometry" />
        </mxCell>
        <mxCell id="y0iYO_KBNPAnz8YPgkZ9-598" value="" style="shape=partialRectangle;html=1;whiteSpace=wrap;connectable=0;strokeColor=inherit;overflow=hidden;fillColor=none;top=0;left=0;bottom=0;right=0;pointerEvents=1;" parent="y0iYO_KBNPAnz8YPgkZ9-597" vertex="1">
          <mxGeometry width="29" height="26" as="geometry">
            <mxRectangle width="29" height="26" as="alternateBounds" />
          </mxGeometry>
        </mxCell>
        <mxCell id="y0iYO_KBNPAnz8YPgkZ9-599" value="" style="shape=partialRectangle;html=1;whiteSpace=wrap;connectable=0;strokeColor=inherit;overflow=hidden;fillColor=none;top=0;left=0;bottom=0;right=0;pointerEvents=1;" parent="y0iYO_KBNPAnz8YPgkZ9-597" vertex="1">
          <mxGeometry x="29" width="29" height="26" as="geometry">
            <mxRectangle width="29" height="26" as="alternateBounds" />
          </mxGeometry>
        </mxCell>
        <mxCell id="y0iYO_KBNPAnz8YPgkZ9-600" value="" style="shape=partialRectangle;html=1;whiteSpace=wrap;connectable=0;strokeColor=inherit;overflow=hidden;fillColor=none;top=0;left=0;bottom=0;right=0;pointerEvents=1;" parent="y0iYO_KBNPAnz8YPgkZ9-597" vertex="1">
          <mxGeometry x="58" width="28" height="26" as="geometry">
            <mxRectangle width="28" height="26" as="alternateBounds" />
          </mxGeometry>
        </mxCell>
        <mxCell id="y0iYO_KBNPAnz8YPgkZ9-601" value="" style="shape=partialRectangle;html=1;whiteSpace=wrap;connectable=0;strokeColor=inherit;overflow=hidden;fillColor=none;top=0;left=0;bottom=0;right=0;pointerEvents=1;" parent="y0iYO_KBNPAnz8YPgkZ9-597" vertex="1">
          <mxGeometry x="86" width="29" height="26" as="geometry">
            <mxRectangle width="29" height="26" as="alternateBounds" />
          </mxGeometry>
        </mxCell>
        <mxCell id="y0iYO_KBNPAnz8YPgkZ9-602" value="" style="shape=partialRectangle;html=1;whiteSpace=wrap;connectable=0;strokeColor=inherit;overflow=hidden;fillColor=none;top=0;left=0;bottom=0;right=0;pointerEvents=1;" parent="y0iYO_KBNPAnz8YPgkZ9-597" vertex="1">
          <mxGeometry x="115" width="29" height="26" as="geometry">
            <mxRectangle width="29" height="26" as="alternateBounds" />
          </mxGeometry>
        </mxCell>
        <mxCell id="y0iYO_KBNPAnz8YPgkZ9-603" value="" style="shape=partialRectangle;html=1;whiteSpace=wrap;connectable=0;strokeColor=inherit;overflow=hidden;fillColor=none;top=0;left=0;bottom=0;right=0;pointerEvents=1;" parent="y0iYO_KBNPAnz8YPgkZ9-597" vertex="1">
          <mxGeometry x="144" width="29" height="26" as="geometry">
            <mxRectangle width="29" height="26" as="alternateBounds" />
          </mxGeometry>
        </mxCell>
        <mxCell id="y0iYO_KBNPAnz8YPgkZ9-604" value="" style="shape=partialRectangle;html=1;whiteSpace=wrap;connectable=0;strokeColor=inherit;overflow=hidden;fillColor=none;top=0;left=0;bottom=0;right=0;pointerEvents=1;" parent="y0iYO_KBNPAnz8YPgkZ9-597" vertex="1">
          <mxGeometry x="173" width="28" height="26" as="geometry">
            <mxRectangle width="28" height="26" as="alternateBounds" />
          </mxGeometry>
        </mxCell>
        <mxCell id="y0iYO_KBNPAnz8YPgkZ9-605" value="" style="shape=partialRectangle;html=1;whiteSpace=wrap;connectable=0;strokeColor=inherit;overflow=hidden;fillColor=none;top=0;left=0;bottom=0;right=0;pointerEvents=1;" parent="y0iYO_KBNPAnz8YPgkZ9-597" vertex="1">
          <mxGeometry x="201" width="29" height="26" as="geometry">
            <mxRectangle width="29" height="26" as="alternateBounds" />
          </mxGeometry>
        </mxCell>
        <mxCell id="y0iYO_KBNPAnz8YPgkZ9-606" value="" style="shape=tableRow;horizontal=0;startSize=0;swimlaneHead=0;swimlaneBody=0;strokeColor=inherit;top=0;left=0;bottom=0;right=0;collapsible=0;dropTarget=0;fillColor=none;points=[[0,0.5],[1,0.5]];portConstraint=eastwest;" parent="y0iYO_KBNPAnz8YPgkZ9-569" vertex="1">
          <mxGeometry y="106" width="230" height="28" as="geometry" />
        </mxCell>
        <mxCell id="y0iYO_KBNPAnz8YPgkZ9-607" value="" style="shape=partialRectangle;html=1;whiteSpace=wrap;connectable=0;strokeColor=inherit;overflow=hidden;fillColor=none;top=0;left=0;bottom=0;right=0;pointerEvents=1;" parent="y0iYO_KBNPAnz8YPgkZ9-606" vertex="1">
          <mxGeometry width="29" height="28" as="geometry">
            <mxRectangle width="29" height="28" as="alternateBounds" />
          </mxGeometry>
        </mxCell>
        <mxCell id="y0iYO_KBNPAnz8YPgkZ9-608" value="" style="shape=partialRectangle;html=1;whiteSpace=wrap;connectable=0;strokeColor=inherit;overflow=hidden;fillColor=none;top=0;left=0;bottom=0;right=0;pointerEvents=1;" parent="y0iYO_KBNPAnz8YPgkZ9-606" vertex="1">
          <mxGeometry x="29" width="29" height="28" as="geometry">
            <mxRectangle width="29" height="28" as="alternateBounds" />
          </mxGeometry>
        </mxCell>
        <mxCell id="y0iYO_KBNPAnz8YPgkZ9-609" value="" style="shape=partialRectangle;html=1;whiteSpace=wrap;connectable=0;strokeColor=inherit;overflow=hidden;fillColor=none;top=0;left=0;bottom=0;right=0;pointerEvents=1;" parent="y0iYO_KBNPAnz8YPgkZ9-606" vertex="1">
          <mxGeometry x="58" width="28" height="28" as="geometry">
            <mxRectangle width="28" height="28" as="alternateBounds" />
          </mxGeometry>
        </mxCell>
        <mxCell id="y0iYO_KBNPAnz8YPgkZ9-610" value="" style="shape=partialRectangle;html=1;whiteSpace=wrap;connectable=0;strokeColor=inherit;overflow=hidden;fillColor=none;top=0;left=0;bottom=0;right=0;pointerEvents=1;" parent="y0iYO_KBNPAnz8YPgkZ9-606" vertex="1">
          <mxGeometry x="86" width="29" height="28" as="geometry">
            <mxRectangle width="29" height="28" as="alternateBounds" />
          </mxGeometry>
        </mxCell>
        <mxCell id="y0iYO_KBNPAnz8YPgkZ9-611" value="" style="shape=partialRectangle;html=1;whiteSpace=wrap;connectable=0;strokeColor=inherit;overflow=hidden;fillColor=none;top=0;left=0;bottom=0;right=0;pointerEvents=1;" parent="y0iYO_KBNPAnz8YPgkZ9-606" vertex="1">
          <mxGeometry x="115" width="29" height="28" as="geometry">
            <mxRectangle width="29" height="28" as="alternateBounds" />
          </mxGeometry>
        </mxCell>
        <mxCell id="y0iYO_KBNPAnz8YPgkZ9-612" value="" style="shape=partialRectangle;html=1;whiteSpace=wrap;connectable=0;strokeColor=inherit;overflow=hidden;fillColor=none;top=0;left=0;bottom=0;right=0;pointerEvents=1;" parent="y0iYO_KBNPAnz8YPgkZ9-606" vertex="1">
          <mxGeometry x="144" width="29" height="28" as="geometry">
            <mxRectangle width="29" height="28" as="alternateBounds" />
          </mxGeometry>
        </mxCell>
        <mxCell id="y0iYO_KBNPAnz8YPgkZ9-613" value="" style="shape=partialRectangle;html=1;whiteSpace=wrap;connectable=0;strokeColor=inherit;overflow=hidden;fillColor=none;top=0;left=0;bottom=0;right=0;pointerEvents=1;" parent="y0iYO_KBNPAnz8YPgkZ9-606" vertex="1">
          <mxGeometry x="173" width="28" height="28" as="geometry">
            <mxRectangle width="28" height="28" as="alternateBounds" />
          </mxGeometry>
        </mxCell>
        <mxCell id="y0iYO_KBNPAnz8YPgkZ9-614" value="" style="shape=partialRectangle;html=1;whiteSpace=wrap;connectable=0;strokeColor=inherit;overflow=hidden;fillColor=none;top=0;left=0;bottom=0;right=0;pointerEvents=1;" parent="y0iYO_KBNPAnz8YPgkZ9-606" vertex="1">
          <mxGeometry x="201" width="29" height="28" as="geometry">
            <mxRectangle width="29" height="28" as="alternateBounds" />
          </mxGeometry>
        </mxCell>
        <mxCell id="y0iYO_KBNPAnz8YPgkZ9-615" value="" style="shape=tableRow;horizontal=0;startSize=0;swimlaneHead=0;swimlaneBody=0;strokeColor=inherit;top=0;left=0;bottom=0;right=0;collapsible=0;dropTarget=0;fillColor=none;points=[[0,0.5],[1,0.5]];portConstraint=eastwest;" parent="y0iYO_KBNPAnz8YPgkZ9-569" vertex="1">
          <mxGeometry y="134" width="230" height="26" as="geometry" />
        </mxCell>
        <mxCell id="y0iYO_KBNPAnz8YPgkZ9-616" value="" style="shape=partialRectangle;html=1;whiteSpace=wrap;connectable=0;strokeColor=inherit;overflow=hidden;fillColor=none;top=0;left=0;bottom=0;right=0;pointerEvents=1;" parent="y0iYO_KBNPAnz8YPgkZ9-615" vertex="1">
          <mxGeometry width="29" height="26" as="geometry">
            <mxRectangle width="29" height="26" as="alternateBounds" />
          </mxGeometry>
        </mxCell>
        <mxCell id="y0iYO_KBNPAnz8YPgkZ9-617" value="" style="shape=partialRectangle;html=1;whiteSpace=wrap;connectable=0;strokeColor=inherit;overflow=hidden;fillColor=none;top=0;left=0;bottom=0;right=0;pointerEvents=1;" parent="y0iYO_KBNPAnz8YPgkZ9-615" vertex="1">
          <mxGeometry x="29" width="29" height="26" as="geometry">
            <mxRectangle width="29" height="26" as="alternateBounds" />
          </mxGeometry>
        </mxCell>
        <mxCell id="y0iYO_KBNPAnz8YPgkZ9-618" value="" style="shape=partialRectangle;html=1;whiteSpace=wrap;connectable=0;strokeColor=inherit;overflow=hidden;fillColor=none;top=0;left=0;bottom=0;right=0;pointerEvents=1;" parent="y0iYO_KBNPAnz8YPgkZ9-615" vertex="1">
          <mxGeometry x="58" width="28" height="26" as="geometry">
            <mxRectangle width="28" height="26" as="alternateBounds" />
          </mxGeometry>
        </mxCell>
        <mxCell id="y0iYO_KBNPAnz8YPgkZ9-619" value="" style="shape=partialRectangle;html=1;whiteSpace=wrap;connectable=0;strokeColor=inherit;overflow=hidden;fillColor=none;top=0;left=0;bottom=0;right=0;pointerEvents=1;" parent="y0iYO_KBNPAnz8YPgkZ9-615" vertex="1">
          <mxGeometry x="86" width="29" height="26" as="geometry">
            <mxRectangle width="29" height="26" as="alternateBounds" />
          </mxGeometry>
        </mxCell>
        <mxCell id="y0iYO_KBNPAnz8YPgkZ9-620" value="" style="shape=partialRectangle;html=1;whiteSpace=wrap;connectable=0;strokeColor=inherit;overflow=hidden;fillColor=none;top=0;left=0;bottom=0;right=0;pointerEvents=1;" parent="y0iYO_KBNPAnz8YPgkZ9-615" vertex="1">
          <mxGeometry x="115" width="29" height="26" as="geometry">
            <mxRectangle width="29" height="26" as="alternateBounds" />
          </mxGeometry>
        </mxCell>
        <mxCell id="y0iYO_KBNPAnz8YPgkZ9-621" value="" style="shape=partialRectangle;html=1;whiteSpace=wrap;connectable=0;strokeColor=inherit;overflow=hidden;fillColor=none;top=0;left=0;bottom=0;right=0;pointerEvents=1;" parent="y0iYO_KBNPAnz8YPgkZ9-615" vertex="1">
          <mxGeometry x="144" width="29" height="26" as="geometry">
            <mxRectangle width="29" height="26" as="alternateBounds" />
          </mxGeometry>
        </mxCell>
        <mxCell id="y0iYO_KBNPAnz8YPgkZ9-622" value="" style="shape=partialRectangle;html=1;whiteSpace=wrap;connectable=0;strokeColor=inherit;overflow=hidden;fillColor=none;top=0;left=0;bottom=0;right=0;pointerEvents=1;" parent="y0iYO_KBNPAnz8YPgkZ9-615" vertex="1">
          <mxGeometry x="173" width="28" height="26" as="geometry">
            <mxRectangle width="28" height="26" as="alternateBounds" />
          </mxGeometry>
        </mxCell>
        <mxCell id="y0iYO_KBNPAnz8YPgkZ9-623" value="" style="shape=partialRectangle;html=1;whiteSpace=wrap;connectable=0;strokeColor=inherit;overflow=hidden;fillColor=none;top=0;left=0;bottom=0;right=0;pointerEvents=1;" parent="y0iYO_KBNPAnz8YPgkZ9-615" vertex="1">
          <mxGeometry x="201" width="29" height="26" as="geometry">
            <mxRectangle width="29" height="26" as="alternateBounds" />
          </mxGeometry>
        </mxCell>
        <mxCell id="y0iYO_KBNPAnz8YPgkZ9-624" value="" style="group" parent="1" vertex="1" connectable="0">
          <mxGeometry x="-484" y="70" width="180" height="220" as="geometry" />
        </mxCell>
        <mxCell id="y0iYO_KBNPAnz8YPgkZ9-499" value="" style="shape=table;startSize=0;container=1;collapsible=0;childLayout=tableLayout;" parent="y0iYO_KBNPAnz8YPgkZ9-624" vertex="1">
          <mxGeometry y="54.187192118226605" width="180" height="165.8128078817734" as="geometry" />
        </mxCell>
        <mxCell id="y0iYO_KBNPAnz8YPgkZ9-500" value="" style="shape=tableRow;horizontal=0;startSize=0;swimlaneHead=0;swimlaneBody=0;strokeColor=inherit;top=0;left=0;bottom=0;right=0;collapsible=0;dropTarget=0;fillColor=none;points=[[0,0.5],[1,0.5]];portConstraint=eastwest;" parent="y0iYO_KBNPAnz8YPgkZ9-499" vertex="1">
          <mxGeometry width="180" height="27" as="geometry" />
        </mxCell>
        <mxCell id="y0iYO_KBNPAnz8YPgkZ9-501" value="" style="shape=partialRectangle;html=1;whiteSpace=wrap;connectable=0;strokeColor=inherit;overflow=hidden;fillColor=none;top=0;left=0;bottom=0;right=0;pointerEvents=1;" parent="y0iYO_KBNPAnz8YPgkZ9-500" vertex="1">
          <mxGeometry width="30" height="27" as="geometry">
            <mxRectangle width="30" height="27" as="alternateBounds" />
          </mxGeometry>
        </mxCell>
        <mxCell id="y0iYO_KBNPAnz8YPgkZ9-502" value="" style="shape=partialRectangle;html=1;whiteSpace=wrap;connectable=0;strokeColor=inherit;overflow=hidden;fillColor=none;top=0;left=0;bottom=0;right=0;pointerEvents=1;" parent="y0iYO_KBNPAnz8YPgkZ9-500" vertex="1">
          <mxGeometry x="30" width="30" height="27" as="geometry">
            <mxRectangle width="30" height="27" as="alternateBounds" />
          </mxGeometry>
        </mxCell>
        <mxCell id="y0iYO_KBNPAnz8YPgkZ9-503" value="" style="shape=partialRectangle;html=1;whiteSpace=wrap;connectable=0;strokeColor=inherit;overflow=hidden;fillColor=none;top=0;left=0;bottom=0;right=0;pointerEvents=1;" parent="y0iYO_KBNPAnz8YPgkZ9-500" vertex="1">
          <mxGeometry x="60" width="30" height="27" as="geometry">
            <mxRectangle width="30" height="27" as="alternateBounds" />
          </mxGeometry>
        </mxCell>
        <mxCell id="y0iYO_KBNPAnz8YPgkZ9-504" value="" style="shape=partialRectangle;html=1;whiteSpace=wrap;connectable=0;strokeColor=inherit;overflow=hidden;fillColor=none;top=0;left=0;bottom=0;right=0;pointerEvents=1;" parent="y0iYO_KBNPAnz8YPgkZ9-500" vertex="1">
          <mxGeometry x="90" width="30" height="27" as="geometry">
            <mxRectangle width="30" height="27" as="alternateBounds" />
          </mxGeometry>
        </mxCell>
        <mxCell id="y0iYO_KBNPAnz8YPgkZ9-505" value="" style="shape=partialRectangle;html=1;whiteSpace=wrap;connectable=0;strokeColor=inherit;overflow=hidden;fillColor=none;top=0;left=0;bottom=0;right=0;pointerEvents=1;" parent="y0iYO_KBNPAnz8YPgkZ9-500" vertex="1">
          <mxGeometry x="120" width="30" height="27" as="geometry">
            <mxRectangle width="30" height="27" as="alternateBounds" />
          </mxGeometry>
        </mxCell>
        <mxCell id="y0iYO_KBNPAnz8YPgkZ9-506" value="" style="shape=partialRectangle;html=1;whiteSpace=wrap;connectable=0;strokeColor=inherit;overflow=hidden;fillColor=none;top=0;left=0;bottom=0;right=0;pointerEvents=1;" parent="y0iYO_KBNPAnz8YPgkZ9-500" vertex="1">
          <mxGeometry x="150" width="30" height="27" as="geometry">
            <mxRectangle width="30" height="27" as="alternateBounds" />
          </mxGeometry>
        </mxCell>
        <mxCell id="y0iYO_KBNPAnz8YPgkZ9-507" value="" style="shape=tableRow;horizontal=0;startSize=0;swimlaneHead=0;swimlaneBody=0;strokeColor=inherit;top=0;left=0;bottom=0;right=0;collapsible=0;dropTarget=0;fillColor=none;points=[[0,0.5],[1,0.5]];portConstraint=eastwest;" parent="y0iYO_KBNPAnz8YPgkZ9-499" vertex="1">
          <mxGeometry y="27" width="180" height="29" as="geometry" />
        </mxCell>
        <mxCell id="y0iYO_KBNPAnz8YPgkZ9-508" value="" style="shape=partialRectangle;html=1;whiteSpace=wrap;connectable=0;strokeColor=inherit;overflow=hidden;fillColor=none;top=0;left=0;bottom=0;right=0;pointerEvents=1;" parent="y0iYO_KBNPAnz8YPgkZ9-507" vertex="1">
          <mxGeometry width="30" height="29" as="geometry">
            <mxRectangle width="30" height="29" as="alternateBounds" />
          </mxGeometry>
        </mxCell>
        <mxCell id="y0iYO_KBNPAnz8YPgkZ9-509" value="" style="shape=partialRectangle;html=1;whiteSpace=wrap;connectable=0;strokeColor=inherit;overflow=hidden;fillColor=none;top=0;left=0;bottom=0;right=0;pointerEvents=1;" parent="y0iYO_KBNPAnz8YPgkZ9-507" vertex="1">
          <mxGeometry x="30" width="30" height="29" as="geometry">
            <mxRectangle width="30" height="29" as="alternateBounds" />
          </mxGeometry>
        </mxCell>
        <mxCell id="y0iYO_KBNPAnz8YPgkZ9-510" value="" style="shape=partialRectangle;html=1;whiteSpace=wrap;connectable=0;strokeColor=inherit;overflow=hidden;fillColor=none;top=0;left=0;bottom=0;right=0;pointerEvents=1;" parent="y0iYO_KBNPAnz8YPgkZ9-507" vertex="1">
          <mxGeometry x="60" width="30" height="29" as="geometry">
            <mxRectangle width="30" height="29" as="alternateBounds" />
          </mxGeometry>
        </mxCell>
        <mxCell id="y0iYO_KBNPAnz8YPgkZ9-511" value="" style="shape=partialRectangle;html=1;whiteSpace=wrap;connectable=0;strokeColor=inherit;overflow=hidden;fillColor=none;top=0;left=0;bottom=0;right=0;pointerEvents=1;" parent="y0iYO_KBNPAnz8YPgkZ9-507" vertex="1">
          <mxGeometry x="90" width="30" height="29" as="geometry">
            <mxRectangle width="30" height="29" as="alternateBounds" />
          </mxGeometry>
        </mxCell>
        <mxCell id="y0iYO_KBNPAnz8YPgkZ9-512" value="" style="shape=partialRectangle;html=1;whiteSpace=wrap;connectable=0;strokeColor=inherit;overflow=hidden;fillColor=none;top=0;left=0;bottom=0;right=0;pointerEvents=1;" parent="y0iYO_KBNPAnz8YPgkZ9-507" vertex="1">
          <mxGeometry x="120" width="30" height="29" as="geometry">
            <mxRectangle width="30" height="29" as="alternateBounds" />
          </mxGeometry>
        </mxCell>
        <mxCell id="y0iYO_KBNPAnz8YPgkZ9-513" value="" style="shape=partialRectangle;html=1;whiteSpace=wrap;connectable=0;strokeColor=inherit;overflow=hidden;fillColor=none;top=0;left=0;bottom=0;right=0;pointerEvents=1;" parent="y0iYO_KBNPAnz8YPgkZ9-507" vertex="1">
          <mxGeometry x="150" width="30" height="29" as="geometry">
            <mxRectangle width="30" height="29" as="alternateBounds" />
          </mxGeometry>
        </mxCell>
        <mxCell id="y0iYO_KBNPAnz8YPgkZ9-514" value="" style="shape=tableRow;horizontal=0;startSize=0;swimlaneHead=0;swimlaneBody=0;strokeColor=inherit;top=0;left=0;bottom=0;right=0;collapsible=0;dropTarget=0;fillColor=none;points=[[0,0.5],[1,0.5]];portConstraint=eastwest;" parent="y0iYO_KBNPAnz8YPgkZ9-499" vertex="1">
          <mxGeometry y="56" width="180" height="27" as="geometry" />
        </mxCell>
        <mxCell id="y0iYO_KBNPAnz8YPgkZ9-515" value="" style="shape=partialRectangle;html=1;whiteSpace=wrap;connectable=0;strokeColor=inherit;overflow=hidden;fillColor=none;top=0;left=0;bottom=0;right=0;pointerEvents=1;" parent="y0iYO_KBNPAnz8YPgkZ9-514" vertex="1">
          <mxGeometry width="30" height="27" as="geometry">
            <mxRectangle width="30" height="27" as="alternateBounds" />
          </mxGeometry>
        </mxCell>
        <mxCell id="y0iYO_KBNPAnz8YPgkZ9-516" value="" style="shape=partialRectangle;html=1;whiteSpace=wrap;connectable=0;strokeColor=inherit;overflow=hidden;fillColor=none;top=0;left=0;bottom=0;right=0;pointerEvents=1;" parent="y0iYO_KBNPAnz8YPgkZ9-514" vertex="1">
          <mxGeometry x="30" width="30" height="27" as="geometry">
            <mxRectangle width="30" height="27" as="alternateBounds" />
          </mxGeometry>
        </mxCell>
        <mxCell id="y0iYO_KBNPAnz8YPgkZ9-517" value="" style="shape=partialRectangle;html=1;whiteSpace=wrap;connectable=0;strokeColor=inherit;overflow=hidden;fillColor=none;top=0;left=0;bottom=0;right=0;pointerEvents=1;" parent="y0iYO_KBNPAnz8YPgkZ9-514" vertex="1">
          <mxGeometry x="60" width="30" height="27" as="geometry">
            <mxRectangle width="30" height="27" as="alternateBounds" />
          </mxGeometry>
        </mxCell>
        <mxCell id="y0iYO_KBNPAnz8YPgkZ9-518" value="" style="shape=partialRectangle;html=1;whiteSpace=wrap;connectable=0;strokeColor=inherit;overflow=hidden;fillColor=none;top=0;left=0;bottom=0;right=0;pointerEvents=1;" parent="y0iYO_KBNPAnz8YPgkZ9-514" vertex="1">
          <mxGeometry x="90" width="30" height="27" as="geometry">
            <mxRectangle width="30" height="27" as="alternateBounds" />
          </mxGeometry>
        </mxCell>
        <mxCell id="y0iYO_KBNPAnz8YPgkZ9-519" value="" style="shape=partialRectangle;html=1;whiteSpace=wrap;connectable=0;strokeColor=inherit;overflow=hidden;fillColor=none;top=0;left=0;bottom=0;right=0;pointerEvents=1;" parent="y0iYO_KBNPAnz8YPgkZ9-514" vertex="1">
          <mxGeometry x="120" width="30" height="27" as="geometry">
            <mxRectangle width="30" height="27" as="alternateBounds" />
          </mxGeometry>
        </mxCell>
        <mxCell id="y0iYO_KBNPAnz8YPgkZ9-520" value="" style="shape=partialRectangle;html=1;whiteSpace=wrap;connectable=0;strokeColor=inherit;overflow=hidden;fillColor=none;top=0;left=0;bottom=0;right=0;pointerEvents=1;" parent="y0iYO_KBNPAnz8YPgkZ9-514" vertex="1">
          <mxGeometry x="150" width="30" height="27" as="geometry">
            <mxRectangle width="30" height="27" as="alternateBounds" />
          </mxGeometry>
        </mxCell>
        <mxCell id="y0iYO_KBNPAnz8YPgkZ9-521" value="" style="shape=tableRow;horizontal=0;startSize=0;swimlaneHead=0;swimlaneBody=0;strokeColor=inherit;top=0;left=0;bottom=0;right=0;collapsible=0;dropTarget=0;fillColor=none;points=[[0,0.5],[1,0.5]];portConstraint=eastwest;" parent="y0iYO_KBNPAnz8YPgkZ9-499" vertex="1">
          <mxGeometry y="83" width="180" height="26" as="geometry" />
        </mxCell>
        <mxCell id="y0iYO_KBNPAnz8YPgkZ9-522" value="" style="shape=partialRectangle;html=1;whiteSpace=wrap;connectable=0;strokeColor=inherit;overflow=hidden;fillColor=none;top=0;left=0;bottom=0;right=0;pointerEvents=1;" parent="y0iYO_KBNPAnz8YPgkZ9-521" vertex="1">
          <mxGeometry width="30" height="26" as="geometry">
            <mxRectangle width="30" height="26" as="alternateBounds" />
          </mxGeometry>
        </mxCell>
        <mxCell id="y0iYO_KBNPAnz8YPgkZ9-523" value="" style="shape=partialRectangle;html=1;whiteSpace=wrap;connectable=0;strokeColor=inherit;overflow=hidden;fillColor=none;top=0;left=0;bottom=0;right=0;pointerEvents=1;" parent="y0iYO_KBNPAnz8YPgkZ9-521" vertex="1">
          <mxGeometry x="30" width="30" height="26" as="geometry">
            <mxRectangle width="30" height="26" as="alternateBounds" />
          </mxGeometry>
        </mxCell>
        <mxCell id="y0iYO_KBNPAnz8YPgkZ9-524" value="" style="shape=partialRectangle;html=1;whiteSpace=wrap;connectable=0;strokeColor=inherit;overflow=hidden;fillColor=none;top=0;left=0;bottom=0;right=0;pointerEvents=1;" parent="y0iYO_KBNPAnz8YPgkZ9-521" vertex="1">
          <mxGeometry x="60" width="30" height="26" as="geometry">
            <mxRectangle width="30" height="26" as="alternateBounds" />
          </mxGeometry>
        </mxCell>
        <mxCell id="y0iYO_KBNPAnz8YPgkZ9-525" value="" style="shape=partialRectangle;html=1;whiteSpace=wrap;connectable=0;strokeColor=inherit;overflow=hidden;fillColor=none;top=0;left=0;bottom=0;right=0;pointerEvents=1;" parent="y0iYO_KBNPAnz8YPgkZ9-521" vertex="1">
          <mxGeometry x="90" width="30" height="26" as="geometry">
            <mxRectangle width="30" height="26" as="alternateBounds" />
          </mxGeometry>
        </mxCell>
        <mxCell id="y0iYO_KBNPAnz8YPgkZ9-526" value="" style="shape=partialRectangle;html=1;whiteSpace=wrap;connectable=0;strokeColor=inherit;overflow=hidden;fillColor=none;top=0;left=0;bottom=0;right=0;pointerEvents=1;" parent="y0iYO_KBNPAnz8YPgkZ9-521" vertex="1">
          <mxGeometry x="120" width="30" height="26" as="geometry">
            <mxRectangle width="30" height="26" as="alternateBounds" />
          </mxGeometry>
        </mxCell>
        <mxCell id="y0iYO_KBNPAnz8YPgkZ9-527" value="" style="shape=partialRectangle;html=1;whiteSpace=wrap;connectable=0;strokeColor=inherit;overflow=hidden;fillColor=none;top=0;left=0;bottom=0;right=0;pointerEvents=1;" parent="y0iYO_KBNPAnz8YPgkZ9-521" vertex="1">
          <mxGeometry x="150" width="30" height="26" as="geometry">
            <mxRectangle width="30" height="26" as="alternateBounds" />
          </mxGeometry>
        </mxCell>
        <mxCell id="y0iYO_KBNPAnz8YPgkZ9-528" value="" style="shape=tableRow;horizontal=0;startSize=0;swimlaneHead=0;swimlaneBody=0;strokeColor=inherit;top=0;left=0;bottom=0;right=0;collapsible=0;dropTarget=0;fillColor=none;points=[[0,0.5],[1,0.5]];portConstraint=eastwest;" parent="y0iYO_KBNPAnz8YPgkZ9-499" vertex="1">
          <mxGeometry y="109" width="180" height="30" as="geometry" />
        </mxCell>
        <mxCell id="y0iYO_KBNPAnz8YPgkZ9-529" value="" style="shape=partialRectangle;html=1;whiteSpace=wrap;connectable=0;strokeColor=inherit;overflow=hidden;fillColor=none;top=0;left=0;bottom=0;right=0;pointerEvents=1;" parent="y0iYO_KBNPAnz8YPgkZ9-528" vertex="1">
          <mxGeometry width="30" height="30" as="geometry">
            <mxRectangle width="30" height="30" as="alternateBounds" />
          </mxGeometry>
        </mxCell>
        <mxCell id="y0iYO_KBNPAnz8YPgkZ9-530" value="" style="shape=partialRectangle;html=1;whiteSpace=wrap;connectable=0;strokeColor=inherit;overflow=hidden;fillColor=none;top=0;left=0;bottom=0;right=0;pointerEvents=1;" parent="y0iYO_KBNPAnz8YPgkZ9-528" vertex="1">
          <mxGeometry x="30" width="30" height="30" as="geometry">
            <mxRectangle width="30" height="30" as="alternateBounds" />
          </mxGeometry>
        </mxCell>
        <mxCell id="y0iYO_KBNPAnz8YPgkZ9-531" value="" style="shape=partialRectangle;html=1;whiteSpace=wrap;connectable=0;strokeColor=inherit;overflow=hidden;fillColor=none;top=0;left=0;bottom=0;right=0;pointerEvents=1;" parent="y0iYO_KBNPAnz8YPgkZ9-528" vertex="1">
          <mxGeometry x="60" width="30" height="30" as="geometry">
            <mxRectangle width="30" height="30" as="alternateBounds" />
          </mxGeometry>
        </mxCell>
        <mxCell id="y0iYO_KBNPAnz8YPgkZ9-532" value="" style="shape=partialRectangle;html=1;whiteSpace=wrap;connectable=0;strokeColor=inherit;overflow=hidden;fillColor=none;top=0;left=0;bottom=0;right=0;pointerEvents=1;" parent="y0iYO_KBNPAnz8YPgkZ9-528" vertex="1">
          <mxGeometry x="90" width="30" height="30" as="geometry">
            <mxRectangle width="30" height="30" as="alternateBounds" />
          </mxGeometry>
        </mxCell>
        <mxCell id="y0iYO_KBNPAnz8YPgkZ9-533" value="" style="shape=partialRectangle;html=1;whiteSpace=wrap;connectable=0;strokeColor=inherit;overflow=hidden;fillColor=none;top=0;left=0;bottom=0;right=0;pointerEvents=1;" parent="y0iYO_KBNPAnz8YPgkZ9-528" vertex="1">
          <mxGeometry x="120" width="30" height="30" as="geometry">
            <mxRectangle width="30" height="30" as="alternateBounds" />
          </mxGeometry>
        </mxCell>
        <mxCell id="y0iYO_KBNPAnz8YPgkZ9-534" value="" style="shape=partialRectangle;html=1;whiteSpace=wrap;connectable=0;strokeColor=inherit;overflow=hidden;fillColor=none;top=0;left=0;bottom=0;right=0;pointerEvents=1;" parent="y0iYO_KBNPAnz8YPgkZ9-528" vertex="1">
          <mxGeometry x="150" width="30" height="30" as="geometry">
            <mxRectangle width="30" height="30" as="alternateBounds" />
          </mxGeometry>
        </mxCell>
        <mxCell id="y0iYO_KBNPAnz8YPgkZ9-535" value="" style="shape=tableRow;horizontal=0;startSize=0;swimlaneHead=0;swimlaneBody=0;strokeColor=inherit;top=0;left=0;bottom=0;right=0;collapsible=0;dropTarget=0;fillColor=none;points=[[0,0.5],[1,0.5]];portConstraint=eastwest;" parent="y0iYO_KBNPAnz8YPgkZ9-499" vertex="1">
          <mxGeometry y="139" width="180" height="27" as="geometry" />
        </mxCell>
        <mxCell id="y0iYO_KBNPAnz8YPgkZ9-536" value="" style="shape=partialRectangle;html=1;whiteSpace=wrap;connectable=0;strokeColor=inherit;overflow=hidden;fillColor=none;top=0;left=0;bottom=0;right=0;pointerEvents=1;" parent="y0iYO_KBNPAnz8YPgkZ9-535" vertex="1">
          <mxGeometry width="30" height="27" as="geometry">
            <mxRectangle width="30" height="27" as="alternateBounds" />
          </mxGeometry>
        </mxCell>
        <mxCell id="y0iYO_KBNPAnz8YPgkZ9-537" value="" style="shape=partialRectangle;html=1;whiteSpace=wrap;connectable=0;strokeColor=inherit;overflow=hidden;fillColor=none;top=0;left=0;bottom=0;right=0;pointerEvents=1;" parent="y0iYO_KBNPAnz8YPgkZ9-535" vertex="1">
          <mxGeometry x="30" width="30" height="27" as="geometry">
            <mxRectangle width="30" height="27" as="alternateBounds" />
          </mxGeometry>
        </mxCell>
        <mxCell id="y0iYO_KBNPAnz8YPgkZ9-538" value="" style="shape=partialRectangle;html=1;whiteSpace=wrap;connectable=0;strokeColor=inherit;overflow=hidden;fillColor=none;top=0;left=0;bottom=0;right=0;pointerEvents=1;" parent="y0iYO_KBNPAnz8YPgkZ9-535" vertex="1">
          <mxGeometry x="60" width="30" height="27" as="geometry">
            <mxRectangle width="30" height="27" as="alternateBounds" />
          </mxGeometry>
        </mxCell>
        <mxCell id="y0iYO_KBNPAnz8YPgkZ9-539" value="" style="shape=partialRectangle;html=1;whiteSpace=wrap;connectable=0;strokeColor=inherit;overflow=hidden;fillColor=none;top=0;left=0;bottom=0;right=0;pointerEvents=1;" parent="y0iYO_KBNPAnz8YPgkZ9-535" vertex="1">
          <mxGeometry x="90" width="30" height="27" as="geometry">
            <mxRectangle width="30" height="27" as="alternateBounds" />
          </mxGeometry>
        </mxCell>
        <mxCell id="y0iYO_KBNPAnz8YPgkZ9-540" value="" style="shape=partialRectangle;html=1;whiteSpace=wrap;connectable=0;strokeColor=inherit;overflow=hidden;fillColor=none;top=0;left=0;bottom=0;right=0;pointerEvents=1;" parent="y0iYO_KBNPAnz8YPgkZ9-535" vertex="1">
          <mxGeometry x="120" width="30" height="27" as="geometry">
            <mxRectangle width="30" height="27" as="alternateBounds" />
          </mxGeometry>
        </mxCell>
        <mxCell id="y0iYO_KBNPAnz8YPgkZ9-541" value="" style="shape=partialRectangle;html=1;whiteSpace=wrap;connectable=0;strokeColor=inherit;overflow=hidden;fillColor=none;top=0;left=0;bottom=0;right=0;pointerEvents=1;" parent="y0iYO_KBNPAnz8YPgkZ9-535" vertex="1">
          <mxGeometry x="150" width="30" height="27" as="geometry">
            <mxRectangle width="30" height="27" as="alternateBounds" />
          </mxGeometry>
        </mxCell>
        <mxCell id="y0iYO_KBNPAnz8YPgkZ9-554" value="" style="shape=table;startSize=0;container=1;collapsible=0;childLayout=tableLayout;fillColor=#dae8fc;strokeColor=#6c8ebf;" parent="y0iYO_KBNPAnz8YPgkZ9-624" vertex="1">
          <mxGeometry width="180" height="54.187192118226605" as="geometry" />
        </mxCell>
        <mxCell id="y0iYO_KBNPAnz8YPgkZ9-555" value="" style="shape=tableRow;horizontal=0;startSize=0;swimlaneHead=0;swimlaneBody=0;strokeColor=inherit;top=0;left=0;bottom=0;right=0;collapsible=0;dropTarget=0;fillColor=none;points=[[0,0.5],[1,0.5]];portConstraint=eastwest;" parent="y0iYO_KBNPAnz8YPgkZ9-554" vertex="1">
          <mxGeometry width="180" height="27" as="geometry" />
        </mxCell>
        <mxCell id="y0iYO_KBNPAnz8YPgkZ9-556" value="" style="shape=partialRectangle;html=1;whiteSpace=wrap;connectable=0;strokeColor=inherit;overflow=hidden;fillColor=none;top=0;left=0;bottom=0;right=0;pointerEvents=1;" parent="y0iYO_KBNPAnz8YPgkZ9-555" vertex="1">
          <mxGeometry width="30" height="27" as="geometry">
            <mxRectangle width="30" height="27" as="alternateBounds" />
          </mxGeometry>
        </mxCell>
        <mxCell id="y0iYO_KBNPAnz8YPgkZ9-557" value="" style="shape=partialRectangle;html=1;whiteSpace=wrap;connectable=0;strokeColor=inherit;overflow=hidden;fillColor=none;top=0;left=0;bottom=0;right=0;pointerEvents=1;" parent="y0iYO_KBNPAnz8YPgkZ9-555" vertex="1">
          <mxGeometry x="30" width="30" height="27" as="geometry">
            <mxRectangle width="30" height="27" as="alternateBounds" />
          </mxGeometry>
        </mxCell>
        <mxCell id="y0iYO_KBNPAnz8YPgkZ9-558" value="" style="shape=partialRectangle;html=1;whiteSpace=wrap;connectable=0;strokeColor=inherit;overflow=hidden;fillColor=none;top=0;left=0;bottom=0;right=0;pointerEvents=1;" parent="y0iYO_KBNPAnz8YPgkZ9-555" vertex="1">
          <mxGeometry x="60" width="30" height="27" as="geometry">
            <mxRectangle width="30" height="27" as="alternateBounds" />
          </mxGeometry>
        </mxCell>
        <mxCell id="y0iYO_KBNPAnz8YPgkZ9-559" value="" style="shape=partialRectangle;html=1;whiteSpace=wrap;connectable=0;strokeColor=inherit;overflow=hidden;fillColor=none;top=0;left=0;bottom=0;right=0;pointerEvents=1;" parent="y0iYO_KBNPAnz8YPgkZ9-555" vertex="1">
          <mxGeometry x="90" width="30" height="27" as="geometry">
            <mxRectangle width="30" height="27" as="alternateBounds" />
          </mxGeometry>
        </mxCell>
        <mxCell id="y0iYO_KBNPAnz8YPgkZ9-560" value="" style="shape=partialRectangle;html=1;whiteSpace=wrap;connectable=0;strokeColor=inherit;overflow=hidden;fillColor=none;top=0;left=0;bottom=0;right=0;pointerEvents=1;" parent="y0iYO_KBNPAnz8YPgkZ9-555" vertex="1">
          <mxGeometry x="120" width="30" height="27" as="geometry">
            <mxRectangle width="30" height="27" as="alternateBounds" />
          </mxGeometry>
        </mxCell>
        <mxCell id="y0iYO_KBNPAnz8YPgkZ9-561" value="" style="shape=partialRectangle;html=1;whiteSpace=wrap;connectable=0;strokeColor=inherit;overflow=hidden;fillColor=none;top=0;left=0;bottom=0;right=0;pointerEvents=1;" parent="y0iYO_KBNPAnz8YPgkZ9-555" vertex="1">
          <mxGeometry x="150" width="30" height="27" as="geometry">
            <mxRectangle width="30" height="27" as="alternateBounds" />
          </mxGeometry>
        </mxCell>
        <mxCell id="y0iYO_KBNPAnz8YPgkZ9-562" value="" style="shape=tableRow;horizontal=0;startSize=0;swimlaneHead=0;swimlaneBody=0;strokeColor=inherit;top=0;left=0;bottom=0;right=0;collapsible=0;dropTarget=0;fillColor=none;points=[[0,0.5],[1,0.5]];portConstraint=eastwest;" parent="y0iYO_KBNPAnz8YPgkZ9-554" vertex="1">
          <mxGeometry y="27" width="180" height="27" as="geometry" />
        </mxCell>
        <mxCell id="y0iYO_KBNPAnz8YPgkZ9-563" value="" style="shape=partialRectangle;html=1;whiteSpace=wrap;connectable=0;strokeColor=inherit;overflow=hidden;fillColor=none;top=0;left=0;bottom=0;right=0;pointerEvents=1;" parent="y0iYO_KBNPAnz8YPgkZ9-562" vertex="1">
          <mxGeometry width="30" height="27" as="geometry">
            <mxRectangle width="30" height="27" as="alternateBounds" />
          </mxGeometry>
        </mxCell>
        <mxCell id="y0iYO_KBNPAnz8YPgkZ9-564" value="" style="shape=partialRectangle;html=1;whiteSpace=wrap;connectable=0;strokeColor=inherit;overflow=hidden;fillColor=none;top=0;left=0;bottom=0;right=0;pointerEvents=1;" parent="y0iYO_KBNPAnz8YPgkZ9-562" vertex="1">
          <mxGeometry x="30" width="30" height="27" as="geometry">
            <mxRectangle width="30" height="27" as="alternateBounds" />
          </mxGeometry>
        </mxCell>
        <mxCell id="y0iYO_KBNPAnz8YPgkZ9-565" value="" style="shape=partialRectangle;html=1;whiteSpace=wrap;connectable=0;strokeColor=inherit;overflow=hidden;fillColor=none;top=0;left=0;bottom=0;right=0;pointerEvents=1;" parent="y0iYO_KBNPAnz8YPgkZ9-562" vertex="1">
          <mxGeometry x="60" width="30" height="27" as="geometry">
            <mxRectangle width="30" height="27" as="alternateBounds" />
          </mxGeometry>
        </mxCell>
        <mxCell id="y0iYO_KBNPAnz8YPgkZ9-566" value="" style="shape=partialRectangle;html=1;whiteSpace=wrap;connectable=0;strokeColor=inherit;overflow=hidden;fillColor=none;top=0;left=0;bottom=0;right=0;pointerEvents=1;" parent="y0iYO_KBNPAnz8YPgkZ9-562" vertex="1">
          <mxGeometry x="90" width="30" height="27" as="geometry">
            <mxRectangle width="30" height="27" as="alternateBounds" />
          </mxGeometry>
        </mxCell>
        <mxCell id="y0iYO_KBNPAnz8YPgkZ9-567" value="" style="shape=partialRectangle;html=1;whiteSpace=wrap;connectable=0;strokeColor=inherit;overflow=hidden;fillColor=none;top=0;left=0;bottom=0;right=0;pointerEvents=1;" parent="y0iYO_KBNPAnz8YPgkZ9-562" vertex="1">
          <mxGeometry x="120" width="30" height="27" as="geometry">
            <mxRectangle width="30" height="27" as="alternateBounds" />
          </mxGeometry>
        </mxCell>
        <mxCell id="y0iYO_KBNPAnz8YPgkZ9-568" value="" style="shape=partialRectangle;html=1;whiteSpace=wrap;connectable=0;strokeColor=inherit;overflow=hidden;fillColor=none;top=0;left=0;bottom=0;right=0;pointerEvents=1;" parent="y0iYO_KBNPAnz8YPgkZ9-562" vertex="1">
          <mxGeometry x="150" width="30" height="27" as="geometry">
            <mxRectangle width="30" height="27" as="alternateBounds" />
          </mxGeometry>
        </mxCell>
        <mxCell id="p8B2s5KAn8v0jcQDTL4f-1" value="&lt;font style=&quot;font-size: 60px;&quot;&gt;softmax&lt;/font&gt;&lt;font style=&quot;font-size: 80px;&quot;&gt;&amp;nbsp;&lt;/font&gt;&lt;font style=&quot;font-size: 100px;&quot;&gt;(&lt;/font&gt;" style="text;html=1;align=center;verticalAlign=middle;whiteSpace=wrap;rounded=0;" vertex="1" parent="1">
          <mxGeometry x="-788" y="154" width="296" height="30" as="geometry" />
        </mxCell>
        <mxCell id="p8B2s5KAn8v0jcQDTL4f-2" value="&lt;font style=&quot;font-size: 100px;&quot;&gt;)&lt;/font&gt;" style="text;html=1;align=center;verticalAlign=middle;whiteSpace=wrap;rounded=0;" vertex="1" parent="1">
          <mxGeometry x="-32" y="153" width="60" height="30" as="geometry" />
        </mxCell>
        <mxCell id="p8B2s5KAn8v0jcQDTL4f-6" value="&lt;span style=&quot;color: rgb(0, 0, 0); font-family: Helvetica; font-size: 100px; font-style: normal; font-variant-ligatures: normal; font-variant-caps: normal; font-weight: 400; letter-spacing: normal; orphans: 2; text-align: center; text-indent: 0px; text-transform: none; widows: 2; word-spacing: 0px; -webkit-text-stroke-width: 0px; white-space: normal; background-color: rgb(251, 251, 251); text-decoration-thickness: initial; text-decoration-style: initial; text-decoration-color: initial; display: inline !important; float: none;&quot;&gt;=&lt;/span&gt;" style="text;whiteSpace=wrap;html=1;fillColor=none;" vertex="1" parent="1">
          <mxGeometry x="236" y="100" width="70" height="140" as="geometry" />
        </mxCell>
        <mxCell id="p8B2s5KAn8v0jcQDTL4f-7" value="" style="shape=table;startSize=0;container=1;collapsible=0;childLayout=tableLayout;fontColor=none;noLabel=1;labelBorderColor=default;" vertex="1" parent="1">
          <mxGeometry x="326" y="124.18719211822662" width="180" height="165.8128078817734" as="geometry" />
        </mxCell>
        <mxCell id="p8B2s5KAn8v0jcQDTL4f-8" value="" style="shape=tableRow;horizontal=0;startSize=0;swimlaneHead=0;swimlaneBody=0;strokeColor=inherit;top=0;left=0;bottom=0;right=0;collapsible=0;dropTarget=0;fillColor=none;points=[[0,0.5],[1,0.5]];portConstraint=eastwest;" vertex="1" parent="p8B2s5KAn8v0jcQDTL4f-7">
          <mxGeometry width="180" height="27" as="geometry" />
        </mxCell>
        <mxCell id="p8B2s5KAn8v0jcQDTL4f-9" value="" style="shape=partialRectangle;html=1;whiteSpace=wrap;connectable=0;strokeColor=inherit;overflow=hidden;fillColor=none;top=0;left=0;bottom=0;right=0;pointerEvents=1;" vertex="1" parent="p8B2s5KAn8v0jcQDTL4f-8">
          <mxGeometry width="30" height="27" as="geometry">
            <mxRectangle width="30" height="27" as="alternateBounds" />
          </mxGeometry>
        </mxCell>
        <mxCell id="p8B2s5KAn8v0jcQDTL4f-10" value="" style="shape=partialRectangle;html=1;whiteSpace=wrap;connectable=0;strokeColor=inherit;overflow=hidden;fillColor=none;top=0;left=0;bottom=0;right=0;pointerEvents=1;" vertex="1" parent="p8B2s5KAn8v0jcQDTL4f-8">
          <mxGeometry x="30" width="30" height="27" as="geometry">
            <mxRectangle width="30" height="27" as="alternateBounds" />
          </mxGeometry>
        </mxCell>
        <mxCell id="p8B2s5KAn8v0jcQDTL4f-11" value="" style="shape=partialRectangle;html=1;whiteSpace=wrap;connectable=0;strokeColor=inherit;overflow=hidden;fillColor=none;top=0;left=0;bottom=0;right=0;pointerEvents=1;" vertex="1" parent="p8B2s5KAn8v0jcQDTL4f-8">
          <mxGeometry x="60" width="30" height="27" as="geometry">
            <mxRectangle width="30" height="27" as="alternateBounds" />
          </mxGeometry>
        </mxCell>
        <mxCell id="p8B2s5KAn8v0jcQDTL4f-12" value="" style="shape=partialRectangle;html=1;whiteSpace=wrap;connectable=0;strokeColor=inherit;overflow=hidden;fillColor=none;top=0;left=0;bottom=0;right=0;pointerEvents=1;" vertex="1" parent="p8B2s5KAn8v0jcQDTL4f-8">
          <mxGeometry x="90" width="30" height="27" as="geometry">
            <mxRectangle width="30" height="27" as="alternateBounds" />
          </mxGeometry>
        </mxCell>
        <mxCell id="p8B2s5KAn8v0jcQDTL4f-13" value="" style="shape=partialRectangle;html=1;whiteSpace=wrap;connectable=0;strokeColor=inherit;overflow=hidden;fillColor=none;top=0;left=0;bottom=0;right=0;pointerEvents=1;" vertex="1" parent="p8B2s5KAn8v0jcQDTL4f-8">
          <mxGeometry x="120" width="30" height="27" as="geometry">
            <mxRectangle width="30" height="27" as="alternateBounds" />
          </mxGeometry>
        </mxCell>
        <mxCell id="p8B2s5KAn8v0jcQDTL4f-14" value="" style="shape=partialRectangle;html=1;whiteSpace=wrap;connectable=0;strokeColor=inherit;overflow=hidden;fillColor=none;top=0;left=0;bottom=0;right=0;pointerEvents=1;" vertex="1" parent="p8B2s5KAn8v0jcQDTL4f-8">
          <mxGeometry x="150" width="30" height="27" as="geometry">
            <mxRectangle width="30" height="27" as="alternateBounds" />
          </mxGeometry>
        </mxCell>
        <mxCell id="p8B2s5KAn8v0jcQDTL4f-15" value="" style="shape=tableRow;horizontal=0;startSize=0;swimlaneHead=0;swimlaneBody=0;strokeColor=inherit;top=0;left=0;bottom=0;right=0;collapsible=0;dropTarget=0;fillColor=none;points=[[0,0.5],[1,0.5]];portConstraint=eastwest;" vertex="1" parent="p8B2s5KAn8v0jcQDTL4f-7">
          <mxGeometry y="27" width="180" height="29" as="geometry" />
        </mxCell>
        <mxCell id="p8B2s5KAn8v0jcQDTL4f-16" value="" style="shape=partialRectangle;html=1;whiteSpace=wrap;connectable=0;strokeColor=inherit;overflow=hidden;fillColor=none;top=0;left=0;bottom=0;right=0;pointerEvents=1;" vertex="1" parent="p8B2s5KAn8v0jcQDTL4f-15">
          <mxGeometry width="30" height="29" as="geometry">
            <mxRectangle width="30" height="29" as="alternateBounds" />
          </mxGeometry>
        </mxCell>
        <mxCell id="p8B2s5KAn8v0jcQDTL4f-17" value="" style="shape=partialRectangle;html=1;whiteSpace=wrap;connectable=0;strokeColor=inherit;overflow=hidden;fillColor=none;top=0;left=0;bottom=0;right=0;pointerEvents=1;" vertex="1" parent="p8B2s5KAn8v0jcQDTL4f-15">
          <mxGeometry x="30" width="30" height="29" as="geometry">
            <mxRectangle width="30" height="29" as="alternateBounds" />
          </mxGeometry>
        </mxCell>
        <mxCell id="p8B2s5KAn8v0jcQDTL4f-18" value="" style="shape=partialRectangle;html=1;whiteSpace=wrap;connectable=0;strokeColor=inherit;overflow=hidden;fillColor=none;top=0;left=0;bottom=0;right=0;pointerEvents=1;" vertex="1" parent="p8B2s5KAn8v0jcQDTL4f-15">
          <mxGeometry x="60" width="30" height="29" as="geometry">
            <mxRectangle width="30" height="29" as="alternateBounds" />
          </mxGeometry>
        </mxCell>
        <mxCell id="p8B2s5KAn8v0jcQDTL4f-19" value="" style="shape=partialRectangle;html=1;whiteSpace=wrap;connectable=0;strokeColor=inherit;overflow=hidden;fillColor=none;top=0;left=0;bottom=0;right=0;pointerEvents=1;" vertex="1" parent="p8B2s5KAn8v0jcQDTL4f-15">
          <mxGeometry x="90" width="30" height="29" as="geometry">
            <mxRectangle width="30" height="29" as="alternateBounds" />
          </mxGeometry>
        </mxCell>
        <mxCell id="p8B2s5KAn8v0jcQDTL4f-20" value="" style="shape=partialRectangle;html=1;whiteSpace=wrap;connectable=0;strokeColor=inherit;overflow=hidden;fillColor=none;top=0;left=0;bottom=0;right=0;pointerEvents=1;" vertex="1" parent="p8B2s5KAn8v0jcQDTL4f-15">
          <mxGeometry x="120" width="30" height="29" as="geometry">
            <mxRectangle width="30" height="29" as="alternateBounds" />
          </mxGeometry>
        </mxCell>
        <mxCell id="p8B2s5KAn8v0jcQDTL4f-21" value="" style="shape=partialRectangle;html=1;whiteSpace=wrap;connectable=0;strokeColor=inherit;overflow=hidden;fillColor=none;top=0;left=0;bottom=0;right=0;pointerEvents=1;" vertex="1" parent="p8B2s5KAn8v0jcQDTL4f-15">
          <mxGeometry x="150" width="30" height="29" as="geometry">
            <mxRectangle width="30" height="29" as="alternateBounds" />
          </mxGeometry>
        </mxCell>
        <mxCell id="p8B2s5KAn8v0jcQDTL4f-22" value="" style="shape=tableRow;horizontal=0;startSize=0;swimlaneHead=0;swimlaneBody=0;strokeColor=inherit;top=0;left=0;bottom=0;right=0;collapsible=0;dropTarget=0;fillColor=none;points=[[0,0.5],[1,0.5]];portConstraint=eastwest;" vertex="1" parent="p8B2s5KAn8v0jcQDTL4f-7">
          <mxGeometry y="56" width="180" height="27" as="geometry" />
        </mxCell>
        <mxCell id="p8B2s5KAn8v0jcQDTL4f-23" value="" style="shape=partialRectangle;html=1;whiteSpace=wrap;connectable=0;strokeColor=inherit;overflow=hidden;fillColor=none;top=0;left=0;bottom=0;right=0;pointerEvents=1;" vertex="1" parent="p8B2s5KAn8v0jcQDTL4f-22">
          <mxGeometry width="30" height="27" as="geometry">
            <mxRectangle width="30" height="27" as="alternateBounds" />
          </mxGeometry>
        </mxCell>
        <mxCell id="p8B2s5KAn8v0jcQDTL4f-24" value="" style="shape=partialRectangle;html=1;whiteSpace=wrap;connectable=0;strokeColor=inherit;overflow=hidden;fillColor=none;top=0;left=0;bottom=0;right=0;pointerEvents=1;" vertex="1" parent="p8B2s5KAn8v0jcQDTL4f-22">
          <mxGeometry x="30" width="30" height="27" as="geometry">
            <mxRectangle width="30" height="27" as="alternateBounds" />
          </mxGeometry>
        </mxCell>
        <mxCell id="p8B2s5KAn8v0jcQDTL4f-25" value="" style="shape=partialRectangle;html=1;whiteSpace=wrap;connectable=0;strokeColor=inherit;overflow=hidden;fillColor=none;top=0;left=0;bottom=0;right=0;pointerEvents=1;" vertex="1" parent="p8B2s5KAn8v0jcQDTL4f-22">
          <mxGeometry x="60" width="30" height="27" as="geometry">
            <mxRectangle width="30" height="27" as="alternateBounds" />
          </mxGeometry>
        </mxCell>
        <mxCell id="p8B2s5KAn8v0jcQDTL4f-26" value="" style="shape=partialRectangle;html=1;whiteSpace=wrap;connectable=0;strokeColor=inherit;overflow=hidden;fillColor=none;top=0;left=0;bottom=0;right=0;pointerEvents=1;" vertex="1" parent="p8B2s5KAn8v0jcQDTL4f-22">
          <mxGeometry x="90" width="30" height="27" as="geometry">
            <mxRectangle width="30" height="27" as="alternateBounds" />
          </mxGeometry>
        </mxCell>
        <mxCell id="p8B2s5KAn8v0jcQDTL4f-27" value="" style="shape=partialRectangle;html=1;whiteSpace=wrap;connectable=0;strokeColor=inherit;overflow=hidden;fillColor=none;top=0;left=0;bottom=0;right=0;pointerEvents=1;" vertex="1" parent="p8B2s5KAn8v0jcQDTL4f-22">
          <mxGeometry x="120" width="30" height="27" as="geometry">
            <mxRectangle width="30" height="27" as="alternateBounds" />
          </mxGeometry>
        </mxCell>
        <mxCell id="p8B2s5KAn8v0jcQDTL4f-28" value="" style="shape=partialRectangle;html=1;whiteSpace=wrap;connectable=0;strokeColor=inherit;overflow=hidden;fillColor=none;top=0;left=0;bottom=0;right=0;pointerEvents=1;" vertex="1" parent="p8B2s5KAn8v0jcQDTL4f-22">
          <mxGeometry x="150" width="30" height="27" as="geometry">
            <mxRectangle width="30" height="27" as="alternateBounds" />
          </mxGeometry>
        </mxCell>
        <mxCell id="p8B2s5KAn8v0jcQDTL4f-29" value="" style="shape=tableRow;horizontal=0;startSize=0;swimlaneHead=0;swimlaneBody=0;strokeColor=inherit;top=0;left=0;bottom=0;right=0;collapsible=0;dropTarget=0;fillColor=none;points=[[0,0.5],[1,0.5]];portConstraint=eastwest;" vertex="1" parent="p8B2s5KAn8v0jcQDTL4f-7">
          <mxGeometry y="83" width="180" height="26" as="geometry" />
        </mxCell>
        <mxCell id="p8B2s5KAn8v0jcQDTL4f-30" value="" style="shape=partialRectangle;html=1;whiteSpace=wrap;connectable=0;strokeColor=inherit;overflow=hidden;fillColor=none;top=0;left=0;bottom=0;right=0;pointerEvents=1;" vertex="1" parent="p8B2s5KAn8v0jcQDTL4f-29">
          <mxGeometry width="30" height="26" as="geometry">
            <mxRectangle width="30" height="26" as="alternateBounds" />
          </mxGeometry>
        </mxCell>
        <mxCell id="p8B2s5KAn8v0jcQDTL4f-31" value="" style="shape=partialRectangle;html=1;whiteSpace=wrap;connectable=0;strokeColor=inherit;overflow=hidden;fillColor=none;top=0;left=0;bottom=0;right=0;pointerEvents=1;" vertex="1" parent="p8B2s5KAn8v0jcQDTL4f-29">
          <mxGeometry x="30" width="30" height="26" as="geometry">
            <mxRectangle width="30" height="26" as="alternateBounds" />
          </mxGeometry>
        </mxCell>
        <mxCell id="p8B2s5KAn8v0jcQDTL4f-32" value="" style="shape=partialRectangle;html=1;whiteSpace=wrap;connectable=0;strokeColor=inherit;overflow=hidden;fillColor=none;top=0;left=0;bottom=0;right=0;pointerEvents=1;" vertex="1" parent="p8B2s5KAn8v0jcQDTL4f-29">
          <mxGeometry x="60" width="30" height="26" as="geometry">
            <mxRectangle width="30" height="26" as="alternateBounds" />
          </mxGeometry>
        </mxCell>
        <mxCell id="p8B2s5KAn8v0jcQDTL4f-33" value="" style="shape=partialRectangle;html=1;whiteSpace=wrap;connectable=0;strokeColor=inherit;overflow=hidden;fillColor=none;top=0;left=0;bottom=0;right=0;pointerEvents=1;" vertex="1" parent="p8B2s5KAn8v0jcQDTL4f-29">
          <mxGeometry x="90" width="30" height="26" as="geometry">
            <mxRectangle width="30" height="26" as="alternateBounds" />
          </mxGeometry>
        </mxCell>
        <mxCell id="p8B2s5KAn8v0jcQDTL4f-34" value="" style="shape=partialRectangle;html=1;whiteSpace=wrap;connectable=0;strokeColor=inherit;overflow=hidden;fillColor=none;top=0;left=0;bottom=0;right=0;pointerEvents=1;" vertex="1" parent="p8B2s5KAn8v0jcQDTL4f-29">
          <mxGeometry x="120" width="30" height="26" as="geometry">
            <mxRectangle width="30" height="26" as="alternateBounds" />
          </mxGeometry>
        </mxCell>
        <mxCell id="p8B2s5KAn8v0jcQDTL4f-35" value="" style="shape=partialRectangle;html=1;whiteSpace=wrap;connectable=0;strokeColor=inherit;overflow=hidden;fillColor=none;top=0;left=0;bottom=0;right=0;pointerEvents=1;" vertex="1" parent="p8B2s5KAn8v0jcQDTL4f-29">
          <mxGeometry x="150" width="30" height="26" as="geometry">
            <mxRectangle width="30" height="26" as="alternateBounds" />
          </mxGeometry>
        </mxCell>
        <mxCell id="p8B2s5KAn8v0jcQDTL4f-36" value="" style="shape=tableRow;horizontal=0;startSize=0;swimlaneHead=0;swimlaneBody=0;strokeColor=inherit;top=0;left=0;bottom=0;right=0;collapsible=0;dropTarget=0;fillColor=none;points=[[0,0.5],[1,0.5]];portConstraint=eastwest;" vertex="1" parent="p8B2s5KAn8v0jcQDTL4f-7">
          <mxGeometry y="109" width="180" height="30" as="geometry" />
        </mxCell>
        <mxCell id="p8B2s5KAn8v0jcQDTL4f-37" value="" style="shape=partialRectangle;html=1;whiteSpace=wrap;connectable=0;strokeColor=inherit;overflow=hidden;fillColor=none;top=0;left=0;bottom=0;right=0;pointerEvents=1;" vertex="1" parent="p8B2s5KAn8v0jcQDTL4f-36">
          <mxGeometry width="30" height="30" as="geometry">
            <mxRectangle width="30" height="30" as="alternateBounds" />
          </mxGeometry>
        </mxCell>
        <mxCell id="p8B2s5KAn8v0jcQDTL4f-38" value="" style="shape=partialRectangle;html=1;whiteSpace=wrap;connectable=0;strokeColor=inherit;overflow=hidden;fillColor=none;top=0;left=0;bottom=0;right=0;pointerEvents=1;" vertex="1" parent="p8B2s5KAn8v0jcQDTL4f-36">
          <mxGeometry x="30" width="30" height="30" as="geometry">
            <mxRectangle width="30" height="30" as="alternateBounds" />
          </mxGeometry>
        </mxCell>
        <mxCell id="p8B2s5KAn8v0jcQDTL4f-39" value="" style="shape=partialRectangle;html=1;whiteSpace=wrap;connectable=0;strokeColor=inherit;overflow=hidden;fillColor=none;top=0;left=0;bottom=0;right=0;pointerEvents=1;" vertex="1" parent="p8B2s5KAn8v0jcQDTL4f-36">
          <mxGeometry x="60" width="30" height="30" as="geometry">
            <mxRectangle width="30" height="30" as="alternateBounds" />
          </mxGeometry>
        </mxCell>
        <mxCell id="p8B2s5KAn8v0jcQDTL4f-40" value="" style="shape=partialRectangle;html=1;whiteSpace=wrap;connectable=0;strokeColor=inherit;overflow=hidden;fillColor=none;top=0;left=0;bottom=0;right=0;pointerEvents=1;" vertex="1" parent="p8B2s5KAn8v0jcQDTL4f-36">
          <mxGeometry x="90" width="30" height="30" as="geometry">
            <mxRectangle width="30" height="30" as="alternateBounds" />
          </mxGeometry>
        </mxCell>
        <mxCell id="p8B2s5KAn8v0jcQDTL4f-41" value="" style="shape=partialRectangle;html=1;whiteSpace=wrap;connectable=0;strokeColor=inherit;overflow=hidden;fillColor=none;top=0;left=0;bottom=0;right=0;pointerEvents=1;" vertex="1" parent="p8B2s5KAn8v0jcQDTL4f-36">
          <mxGeometry x="120" width="30" height="30" as="geometry">
            <mxRectangle width="30" height="30" as="alternateBounds" />
          </mxGeometry>
        </mxCell>
        <mxCell id="p8B2s5KAn8v0jcQDTL4f-42" value="" style="shape=partialRectangle;html=1;whiteSpace=wrap;connectable=0;strokeColor=inherit;overflow=hidden;fillColor=none;top=0;left=0;bottom=0;right=0;pointerEvents=1;" vertex="1" parent="p8B2s5KAn8v0jcQDTL4f-36">
          <mxGeometry x="150" width="30" height="30" as="geometry">
            <mxRectangle width="30" height="30" as="alternateBounds" />
          </mxGeometry>
        </mxCell>
        <mxCell id="p8B2s5KAn8v0jcQDTL4f-43" value="" style="shape=tableRow;horizontal=0;startSize=0;swimlaneHead=0;swimlaneBody=0;strokeColor=inherit;top=0;left=0;bottom=0;right=0;collapsible=0;dropTarget=0;fillColor=none;points=[[0,0.5],[1,0.5]];portConstraint=eastwest;" vertex="1" parent="p8B2s5KAn8v0jcQDTL4f-7">
          <mxGeometry y="139" width="180" height="27" as="geometry" />
        </mxCell>
        <mxCell id="p8B2s5KAn8v0jcQDTL4f-44" value="" style="shape=partialRectangle;html=1;whiteSpace=wrap;connectable=0;strokeColor=inherit;overflow=hidden;fillColor=none;top=0;left=0;bottom=0;right=0;pointerEvents=1;" vertex="1" parent="p8B2s5KAn8v0jcQDTL4f-43">
          <mxGeometry width="30" height="27" as="geometry">
            <mxRectangle width="30" height="27" as="alternateBounds" />
          </mxGeometry>
        </mxCell>
        <mxCell id="p8B2s5KAn8v0jcQDTL4f-45" value="" style="shape=partialRectangle;html=1;whiteSpace=wrap;connectable=0;strokeColor=inherit;overflow=hidden;fillColor=none;top=0;left=0;bottom=0;right=0;pointerEvents=1;" vertex="1" parent="p8B2s5KAn8v0jcQDTL4f-43">
          <mxGeometry x="30" width="30" height="27" as="geometry">
            <mxRectangle width="30" height="27" as="alternateBounds" />
          </mxGeometry>
        </mxCell>
        <mxCell id="p8B2s5KAn8v0jcQDTL4f-46" value="" style="shape=partialRectangle;html=1;whiteSpace=wrap;connectable=0;strokeColor=inherit;overflow=hidden;fillColor=none;top=0;left=0;bottom=0;right=0;pointerEvents=1;" vertex="1" parent="p8B2s5KAn8v0jcQDTL4f-43">
          <mxGeometry x="60" width="30" height="27" as="geometry">
            <mxRectangle width="30" height="27" as="alternateBounds" />
          </mxGeometry>
        </mxCell>
        <mxCell id="p8B2s5KAn8v0jcQDTL4f-47" value="" style="shape=partialRectangle;html=1;whiteSpace=wrap;connectable=0;strokeColor=inherit;overflow=hidden;fillColor=none;top=0;left=0;bottom=0;right=0;pointerEvents=1;" vertex="1" parent="p8B2s5KAn8v0jcQDTL4f-43">
          <mxGeometry x="90" width="30" height="27" as="geometry">
            <mxRectangle width="30" height="27" as="alternateBounds" />
          </mxGeometry>
        </mxCell>
        <mxCell id="p8B2s5KAn8v0jcQDTL4f-48" value="" style="shape=partialRectangle;html=1;whiteSpace=wrap;connectable=0;strokeColor=inherit;overflow=hidden;fillColor=none;top=0;left=0;bottom=0;right=0;pointerEvents=1;" vertex="1" parent="p8B2s5KAn8v0jcQDTL4f-43">
          <mxGeometry x="120" width="30" height="27" as="geometry">
            <mxRectangle width="30" height="27" as="alternateBounds" />
          </mxGeometry>
        </mxCell>
        <mxCell id="p8B2s5KAn8v0jcQDTL4f-49" value="" style="shape=partialRectangle;html=1;whiteSpace=wrap;connectable=0;strokeColor=inherit;overflow=hidden;fillColor=none;top=0;left=0;bottom=0;right=0;pointerEvents=1;" vertex="1" parent="p8B2s5KAn8v0jcQDTL4f-43">
          <mxGeometry x="150" width="30" height="27" as="geometry">
            <mxRectangle width="30" height="27" as="alternateBounds" />
          </mxGeometry>
        </mxCell>
        <mxCell id="p8B2s5KAn8v0jcQDTL4f-50" value="" style="shape=table;startSize=0;container=1;collapsible=0;childLayout=tableLayout;fillColor=#dae8fc;strokeColor=#6c8ebf;" vertex="1" parent="1">
          <mxGeometry x="326" y="70" width="180" height="54.187192118226605" as="geometry" />
        </mxCell>
        <mxCell id="p8B2s5KAn8v0jcQDTL4f-51" value="" style="shape=tableRow;horizontal=0;startSize=0;swimlaneHead=0;swimlaneBody=0;strokeColor=inherit;top=0;left=0;bottom=0;right=0;collapsible=0;dropTarget=0;fillColor=none;points=[[0,0.5],[1,0.5]];portConstraint=eastwest;" vertex="1" parent="p8B2s5KAn8v0jcQDTL4f-50">
          <mxGeometry width="180" height="27" as="geometry" />
        </mxCell>
        <mxCell id="p8B2s5KAn8v0jcQDTL4f-52" value="" style="shape=partialRectangle;html=1;whiteSpace=wrap;connectable=0;strokeColor=inherit;overflow=hidden;fillColor=none;top=0;left=0;bottom=0;right=0;pointerEvents=1;" vertex="1" parent="p8B2s5KAn8v0jcQDTL4f-51">
          <mxGeometry width="30" height="27" as="geometry">
            <mxRectangle width="30" height="27" as="alternateBounds" />
          </mxGeometry>
        </mxCell>
        <mxCell id="p8B2s5KAn8v0jcQDTL4f-53" value="" style="shape=partialRectangle;html=1;whiteSpace=wrap;connectable=0;strokeColor=inherit;overflow=hidden;fillColor=none;top=0;left=0;bottom=0;right=0;pointerEvents=1;" vertex="1" parent="p8B2s5KAn8v0jcQDTL4f-51">
          <mxGeometry x="30" width="30" height="27" as="geometry">
            <mxRectangle width="30" height="27" as="alternateBounds" />
          </mxGeometry>
        </mxCell>
        <mxCell id="p8B2s5KAn8v0jcQDTL4f-54" value="" style="shape=partialRectangle;html=1;whiteSpace=wrap;connectable=0;strokeColor=inherit;overflow=hidden;fillColor=none;top=0;left=0;bottom=0;right=0;pointerEvents=1;" vertex="1" parent="p8B2s5KAn8v0jcQDTL4f-51">
          <mxGeometry x="60" width="30" height="27" as="geometry">
            <mxRectangle width="30" height="27" as="alternateBounds" />
          </mxGeometry>
        </mxCell>
        <mxCell id="p8B2s5KAn8v0jcQDTL4f-55" value="" style="shape=partialRectangle;html=1;whiteSpace=wrap;connectable=0;strokeColor=inherit;overflow=hidden;fillColor=none;top=0;left=0;bottom=0;right=0;pointerEvents=1;" vertex="1" parent="p8B2s5KAn8v0jcQDTL4f-51">
          <mxGeometry x="90" width="30" height="27" as="geometry">
            <mxRectangle width="30" height="27" as="alternateBounds" />
          </mxGeometry>
        </mxCell>
        <mxCell id="p8B2s5KAn8v0jcQDTL4f-56" value="" style="shape=partialRectangle;html=1;whiteSpace=wrap;connectable=0;strokeColor=inherit;overflow=hidden;fillColor=none;top=0;left=0;bottom=0;right=0;pointerEvents=1;" vertex="1" parent="p8B2s5KAn8v0jcQDTL4f-51">
          <mxGeometry x="120" width="30" height="27" as="geometry">
            <mxRectangle width="30" height="27" as="alternateBounds" />
          </mxGeometry>
        </mxCell>
        <mxCell id="p8B2s5KAn8v0jcQDTL4f-57" value="" style="shape=partialRectangle;html=1;whiteSpace=wrap;connectable=0;strokeColor=inherit;overflow=hidden;fillColor=none;top=0;left=0;bottom=0;right=0;pointerEvents=1;" vertex="1" parent="p8B2s5KAn8v0jcQDTL4f-51">
          <mxGeometry x="150" width="30" height="27" as="geometry">
            <mxRectangle width="30" height="27" as="alternateBounds" />
          </mxGeometry>
        </mxCell>
        <mxCell id="p8B2s5KAn8v0jcQDTL4f-58" value="" style="shape=tableRow;horizontal=0;startSize=0;swimlaneHead=0;swimlaneBody=0;strokeColor=inherit;top=0;left=0;bottom=0;right=0;collapsible=0;dropTarget=0;fillColor=none;points=[[0,0.5],[1,0.5]];portConstraint=eastwest;" vertex="1" parent="p8B2s5KAn8v0jcQDTL4f-50">
          <mxGeometry y="27" width="180" height="27" as="geometry" />
        </mxCell>
        <mxCell id="p8B2s5KAn8v0jcQDTL4f-59" value="" style="shape=partialRectangle;html=1;whiteSpace=wrap;connectable=0;strokeColor=inherit;overflow=hidden;fillColor=none;top=0;left=0;bottom=0;right=0;pointerEvents=1;" vertex="1" parent="p8B2s5KAn8v0jcQDTL4f-58">
          <mxGeometry width="30" height="27" as="geometry">
            <mxRectangle width="30" height="27" as="alternateBounds" />
          </mxGeometry>
        </mxCell>
        <mxCell id="p8B2s5KAn8v0jcQDTL4f-60" value="" style="shape=partialRectangle;html=1;whiteSpace=wrap;connectable=0;strokeColor=inherit;overflow=hidden;fillColor=none;top=0;left=0;bottom=0;right=0;pointerEvents=1;" vertex="1" parent="p8B2s5KAn8v0jcQDTL4f-58">
          <mxGeometry x="30" width="30" height="27" as="geometry">
            <mxRectangle width="30" height="27" as="alternateBounds" />
          </mxGeometry>
        </mxCell>
        <mxCell id="p8B2s5KAn8v0jcQDTL4f-61" value="" style="shape=partialRectangle;html=1;whiteSpace=wrap;connectable=0;strokeColor=inherit;overflow=hidden;fillColor=none;top=0;left=0;bottom=0;right=0;pointerEvents=1;" vertex="1" parent="p8B2s5KAn8v0jcQDTL4f-58">
          <mxGeometry x="60" width="30" height="27" as="geometry">
            <mxRectangle width="30" height="27" as="alternateBounds" />
          </mxGeometry>
        </mxCell>
        <mxCell id="p8B2s5KAn8v0jcQDTL4f-62" value="" style="shape=partialRectangle;html=1;whiteSpace=wrap;connectable=0;strokeColor=inherit;overflow=hidden;fillColor=none;top=0;left=0;bottom=0;right=0;pointerEvents=1;" vertex="1" parent="p8B2s5KAn8v0jcQDTL4f-58">
          <mxGeometry x="90" width="30" height="27" as="geometry">
            <mxRectangle width="30" height="27" as="alternateBounds" />
          </mxGeometry>
        </mxCell>
        <mxCell id="p8B2s5KAn8v0jcQDTL4f-63" value="" style="shape=partialRectangle;html=1;whiteSpace=wrap;connectable=0;strokeColor=inherit;overflow=hidden;fillColor=none;top=0;left=0;bottom=0;right=0;pointerEvents=1;" vertex="1" parent="p8B2s5KAn8v0jcQDTL4f-58">
          <mxGeometry x="120" width="30" height="27" as="geometry">
            <mxRectangle width="30" height="27" as="alternateBounds" />
          </mxGeometry>
        </mxCell>
        <mxCell id="p8B2s5KAn8v0jcQDTL4f-64" value="" style="shape=partialRectangle;html=1;whiteSpace=wrap;connectable=0;strokeColor=inherit;overflow=hidden;fillColor=none;top=0;left=0;bottom=0;right=0;pointerEvents=1;" vertex="1" parent="p8B2s5KAn8v0jcQDTL4f-58">
          <mxGeometry x="150" width="30" height="27" as="geometry">
            <mxRectangle width="30" height="27" as="alternateBounds" />
          </mxGeometry>
        </mxCell>
        <mxCell id="p8B2s5KAn8v0jcQDTL4f-65" value="attention out" style="text;html=1;align=center;verticalAlign=middle;whiteSpace=wrap;rounded=0;fontSize=30;" vertex="1" parent="1">
          <mxGeometry x="328" y="26" width="191" height="30" as="geometry" />
        </mxCell>
        <mxCell id="p8B2s5KAn8v0jcQDTL4f-66" value="B x T/P x E" style="text;html=1;align=center;verticalAlign=middle;whiteSpace=wrap;rounded=0;fontSize=20;" vertex="1" parent="1">
          <mxGeometry x="342" y="296" width="130" height="30" as="geometry" />
        </mxCell>
      </root>
    </mxGraphModel>
  </diagram>
</mxfile>
